<?xml version="1.0" standalone="no"?>
<!DOCTYPE svg PUBLIC "-//W3C//DTD SVG 20010904//EN"
 "http://www.w3.org/TR/2001/REC-SVG-20010904/DTD/svg10.dtd">
<svg version="1.0" xmlns="http://www.w3.org/2000/svg"
 width="400.000000pt" height="400.000000pt" viewBox="0 0 400.000000 400.000000"
 preserveAspectRatio="xMidYMid meet">
<metadata>
Created by potrace 1.11, written by Peter Selinger 2001-2013
</metadata>
<g transform="translate(0.000000,400.000000) scale(0.100000,-0.100000)"
fill="#000000" stroke="none">
<path d="M0 2000 l0 -2000 2000 0 2000 0 0 2000 0 2000 -2000 0 -2000 0 0
-2000z m2682 1295 c2 -35 0 -45 -12 -45 -11 0 -15 12 -15 45 0 27 5 45 11 45
7 0 14 -20 16 -45z m74 31 c3 -8 -2 -26 -11 -39 -15 -24 -15 -26 2 -30 12 -3
9 -5 -9 -6 -34 -1 -35 6 -7 35 22 23 17 49 -7 40 -8 -3 -14 -1 -14 4 0 16 40
12 46 -4z m74 5 c0 -12 -29 -81 -35 -81 -2 0 2 18 10 39 13 38 13 40 -8 44
-18 4 -17 5 6 6 15 0 27 -3 27 -8z m65 -36 c0 -33 -3 -40 -20 -40 -15 0 -20 7
-22 30 -2 43 4 57 24 53 14 -2 18 -13 18 -43z m140 0 c0 -32 -4 -40 -20 -43
-19 -4 -20 -3 -1 11 18 13 18 14 -3 20 -34 9 -26 61 9 55 10 -2 15 -15 15 -43z
m70 0 c0 -32 -4 -40 -20 -43 -19 -4 -20 -3 -1 11 18 13 18 14 -3 20 -34 9 -26
61 9 55 10 -2 15 -15 15 -43z m75 36 c0 -12 -29 -81 -35 -81 -2 0 2 18 10 39
13 38 13 40 -8 44 -18 4 -17 5 6 6 15 0 27 -3 27 -8z m66 -5 c3 -8 -2 -26 -11
-39 -15 -24 -15 -26 2 -30 12 -3 9 -5 -9 -6 -34 -1 -35 6 -7 35 22 23 17 49
-7 40 -8 -3 -14 -1 -14 4 0 16 40 12 46 -4z m-293 -16 c-13 -5 -23 -16 -23
-25 0 -9 10 -20 23 -25 17 -8 18 -9 3 -7 -28 3 -43 32 -27 51 8 9 21 16 30 15
11 0 9 -3 -6 -9z m-53 -161 c0 -47 -2 -50 -22 -47 -32 4 -39 57 -9 65 12 3 21
12 21 19 0 8 2 14 5 14 3 0 5 -23 5 -51z m130 41 c-13 -9 -13 -11 0 -20 10 -6
11 -10 3 -10 -8 0 -14 -14 -15 -32 l-1 -33 -4 33 c-2 17 -8 32 -14 32 -5 0 -1
9 8 20 10 11 22 20 28 20 5 0 3 -5 -5 -10z m-695 -45 c0 -32 -4 -40 -20 -43
-19 -4 -20 -3 -1 11 18 13 18 14 -3 20 -34 9 -26 61 9 55 10 -2 15 -15 15 -43z
m70 0 c0 -33 -3 -40 -20 -40 -15 0 -21 8 -23 28 -5 39 5 59 25 55 14 -2 18
-13 18 -43z m140 0 c0 -32 -4 -40 -20 -43 -19 -4 -20 -3 -1 11 18 13 18 14 -3
20 -34 9 -26 61 9 55 10 -2 15 -15 15 -43z m70 0 c0 -32 -4 -40 -20 -43 -19
-4 -20 -3 -1 11 18 13 18 14 -3 20 -34 9 -26 61 9 55 10 -2 15 -15 15 -43z
m75 36 c0 -12 -29 -81 -35 -81 -2 0 2 18 10 39 13 38 13 40 -8 44 -18 4 -17 5
6 6 15 0 27 -3 27 -8z m66 -5 c3 -8 -2 -26 -11 -39 -15 -24 -15 -26 2 -30 12
-3 9 -5 -9 -6 -34 -1 -35 6 -7 35 22 23 17 49 -7 40 -8 -3 -14 -1 -14 4 0 16
40 12 46 -4z m-278 -44 c3 -30 1 -33 -19 -30 -30 4 -37 28 -10 35 26 7 27 20
4 27 -14 4 -14 4 2 3 15 -2 21 -11 23 -35z m350 16 c2 -11 -5 -18 -20 -20
l-23 -5 25 -11 25 -12 -25 3 c-26 2 -37 25 -26 53 8 20 40 14 44 -8z m140 -16
c3 -30 1 -33 -19 -30 -30 4 -37 28 -10 35 26 7 27 20 4 27 -14 4 -14 4 2 3 15
-2 21 -11 23 -35z m140 0 c3 -30 1 -33 -19 -30 -30 4 -37 28 -10 35 26 7 27
20 4 27 -14 4 -14 4 2 3 15 -2 21 -11 23 -35z m70 0 c3 -30 1 -33 -19 -30 -30
4 -37 28 -10 35 26 7 27 20 4 27 -14 4 -14 4 2 3 15 -2 21 -11 23 -35z m-1137
-115 c30 -8 23 -61 -8 -65 -22 -3 -23 0 -22 50 1 29 3 46 6 37 2 -10 13 -19
24 -22z m89 -18 c0 -47 -2 -50 -22 -47 -32 4 -39 57 -9 65 12 3 21 12 21 19 0
8 2 14 5 14 3 0 5 -23 5 -51z m270 41 c-13 -9 -13 -11 0 -20 10 -6 11 -10 3
-10 -8 0 -14 -14 -15 -32 l-1 -33 -4 33 c-2 17 -8 32 -14 32 -5 0 -1 9 8 20
10 11 22 20 28 20 5 0 3 -5 -5 -10z m80 -41 c0 -47 -2 -50 -22 -47 -32 4 -39
57 -9 65 12 3 21 12 21 19 0 8 2 14 5 14 3 0 5 -23 5 -51z m471 18 c30 -8 23
-61 -8 -65 -22 -3 -23 0 -22 50 1 29 3 46 6 37 2 -10 13 -19 24 -22z m89 -18
c0 -47 -2 -50 -22 -47 -32 4 -39 57 -9 65 12 3 21 12 21 19 0 8 2 14 5 14 3 0
5 -23 5 -51z m70 0 c0 -47 -2 -50 -22 -47 -32 4 -39 57 -9 65 12 3 21 12 21
19 0 8 2 14 5 14 3 0 5 -23 5 -51z m-912 19 c3 -13 -3 -18 -20 -17 -17 1 -18
3 -5 6 24 6 21 21 -5 26 -20 5 -20 5 2 4 15 -1 26 -9 28 -19z m55 15 c-29 -5
-30 -19 -2 -26 31 -8 22 -51 -11 -54 -25 -3 -25 -3 -2 7 27 12 29 30 2 37 -11
3 -20 14 -20 24 0 14 7 19 28 18 23 -2 24 -2 5 -6z m87 -2 c0 -12 -29 -81 -35
-81 -2 0 2 18 10 39 13 38 13 40 -8 44 -18 4 -17 5 6 6 15 0 27 -3 27 -8z
m205 -36 c0 -33 -3 -40 -20 -40 -15 0 -20 7 -22 30 -2 43 4 57 24 53 14 -2 18
-13 18 -43z m58 35 c-27 -11 -30 -28 -5 -26 12 1 17 -6 17 -24 0 -38 -39 -35
-43 3 -5 41 4 57 30 56 l23 0 -22 -9z m87 1 c0 -12 -29 -81 -35 -81 -2 0 2 18
10 39 13 38 13 40 -8 44 -18 4 -17 5 6 6 15 0 27 -3 27 -8z m70 0 c0 -12 -29
-81 -35 -81 -2 0 2 18 10 39 13 38 13 40 -8 44 -18 4 -17 5 6 6 15 0 27 -3 27
-8z m62 -36 c2 -35 0 -45 -12 -45 -11 0 -15 12 -15 45 0 27 5 45 11 45 7 0 14
-20 16 -45z m78 -15 c4 -3 2 -11 -6 -18 -8 -7 -14 -8 -14 -2 0 5 -7 10 -15 10
-20 0 -19 15 3 48 l17 26 3 -29 c2 -17 7 -32 12 -35z m-703 -15 c-4 -8 -17
-15 -29 -14 l-23 0 23 9 c12 5 22 15 22 21 0 7 3 10 6 6 4 -3 4 -13 1 -22z
m-137 -116 c0 -47 -2 -50 -22 -47 -32 4 -39 57 -9 65 12 3 21 12 21 19 0 8 2
14 5 14 3 0 5 -23 5 -51z m-215 -4 c0 -33 -3 -40 -20 -40 -15 0 -21 8 -23 28
-5 39 5 59 25 55 14 -2 18 -13 18 -43z m73 23 c3 -13 -3 -18 -20 -17 -17 1
-18 3 -5 6 24 6 21 21 -5 26 -20 5 -20 5 2 4 15 -1 26 -9 28 -19z m278 8 c3
-8 -2 -26 -11 -39 -15 -24 -15 -26 2 -30 12 -3 9 -5 -9 -6 -34 -1 -35 6 -7 35
22 23 17 49 -7 40 -8 -3 -14 -1 -14 4 0 16 40 12 46 -4z m74 5 c0 -12 -29 -81
-35 -81 -2 0 2 18 10 39 13 38 13 40 -8 44 -18 4 -17 5 6 6 15 0 27 -3 27 -8z
m65 -36 c0 -33 -3 -40 -20 -40 -15 0 -21 8 -23 28 -5 39 5 59 25 55 14 -2 18
-13 18 -43z m75 36 c0 -12 -29 -81 -35 -81 -2 0 2 18 10 39 13 38 13 40 -8 44
-18 4 -17 5 6 6 15 0 27 -3 27 -8z m53 -1 c-27 -11 -30 -28 -5 -26 12 1 17 -6
17 -24 0 -38 -39 -35 -43 3 -5 41 4 57 30 56 l23 0 -22 -9z m85 -12 c3 -13 -3
-18 -20 -17 -17 1 -18 3 -5 6 24 6 21 21 -5 26 -20 5 -20 5 2 4 15 -1 26 -9
28 -19z m67 -23 c0 -33 -3 -40 -20 -40 -15 0 -21 8 -23 28 -5 39 5 59 25 55
14 -2 18 -13 18 -43z m137 0 c2 -35 0 -45 -12 -45 -11 0 -15 12 -15 45 0 27 5
45 11 45 7 0 14 -20 16 -45z m73 0 c0 -33 -3 -40 -20 -40 -15 0 -21 8 -23 28
-5 39 5 59 25 55 14 -2 18 -13 18 -43z m75 36 c0 -12 -29 -81 -35 -81 -2 0 2
18 10 39 13 38 13 40 -8 44 -18 4 -17 5 6 6 15 0 27 -3 27 -8z m66 -5 c3 -8
-2 -26 -11 -39 -15 -24 -15 -26 2 -30 12 -3 9 -5 -9 -6 -34 -1 -35 6 -7 35 22
23 17 49 -7 40 -8 -3 -14 -1 -14 4 0 16 40 12 46 -4z m69 -31 c0 -33 -3 -40
-20 -40 -15 0 -20 7 -22 30 -2 43 4 57 24 53 14 -2 18 -13 18 -43z m-1047 -13
c3 -30 1 -33 -19 -30 -30 4 -37 28 -10 35 26 7 27 20 4 27 -14 4 -14 4 2 3 15
-2 21 -11 23 -35z m125 28 c-13 -5 -23 -16 -23 -25 0 -9 10 -20 23 -25 17 -8
18 -9 3 -7 -28 3 -43 32 -27 51 8 9 21 16 30 15 11 0 9 -3 -6 -9z m575 -12 c2
-11 -5 -18 -20 -20 l-23 -5 25 -11 25 -12 -25 3 c-26 2 -37 25 -26 53 8 20 40
14 44 -8z m-771 -33 c-4 -8 -17 -15 -29 -14 l-23 0 23 9 c12 5 22 15 22 21 0
7 3 10 6 6 4 -3 4 -13 1 -22z m630 0 c-4 -8 -17 -15 -29 -14 l-23 0 23 9 c12
5 22 15 22 21 0 7 3 10 6 6 4 -3 4 -13 1 -22z m-856 -98 c30 -8 23 -61 -8 -65
-22 -3 -23 0 -22 50 1 29 3 46 6 37 2 -10 13 -19 24 -22z m159 -18 c0 -47 -2
-50 -22 -47 -32 4 -39 57 -9 65 12 3 21 12 21 19 0 8 2 14 5 14 3 0 5 -23 5
-51z m51 18 c30 -8 23 -61 -8 -65 -22 -3 -23 0 -22 50 1 29 3 46 6 37 2 -10
13 -19 24 -22z m210 0 c30 -8 23 -61 -8 -65 -22 -3 -23 0 -22 50 1 29 3 46 6
37 2 -10 13 -19 24 -22z m140 0 c30 -8 23 -61 -8 -65 -22 -3 -23 0 -22 50 1
29 3 46 6 37 2 -10 13 -19 24 -22z m359 23 c-13 -9 -13 -11 0 -20 10 -6 11
-10 3 -10 -8 0 -14 -14 -15 -32 l-1 -33 -4 33 c-2 17 -8 32 -14 32 -5 0 -1 9
8 20 10 11 22 20 28 20 5 0 3 -5 -5 -10z m80 -41 c0 -47 -2 -50 -22 -47 -32 4
-39 57 -9 65 12 3 21 12 21 19 0 8 2 14 5 14 3 0 5 -23 5 -51z m210 0 c0 -47
-2 -50 -22 -47 -32 4 -39 57 -9 65 12 3 21 12 21 19 0 8 2 14 5 14 3 0 5 -23
5 -51z m-1120 32 c0 -12 -29 -81 -35 -81 -2 0 2 18 10 39 13 38 13 40 -8 44
-18 4 -17 5 6 6 15 0 27 -3 27 -8z m193 -1 c-27 -11 -30 -28 -5 -26 12 1 17
-6 17 -24 0 -38 -39 -35 -43 3 -5 41 4 57 30 56 l23 0 -22 -9z m70 0 c-27 -11
-30 -28 -5 -26 12 1 17 -6 17 -24 0 -38 -39 -35 -43 3 -5 41 4 57 30 56 l23 0
-22 -9z m149 -35 c2 -35 0 -45 -12 -45 -11 0 -15 12 -15 45 0 27 5 45 11 45 7
0 14 -20 16 -45z m144 31 c3 -8 -2 -26 -11 -39 -15 -24 -15 -26 2 -30 12 -3 9
-5 -9 -6 -34 -1 -35 6 -7 35 22 23 17 49 -7 40 -8 -3 -14 -1 -14 4 0 16 40 12
46 -4z m69 -31 c0 -32 -4 -40 -20 -43 -19 -4 -20 -3 -1 11 18 13 18 14 -3 20
-34 9 -26 61 9 55 10 -2 15 -15 15 -43z m58 35 c-27 -11 -30 -28 -5 -26 12 1
17 -6 17 -24 0 -38 -39 -35 -43 3 -5 41 4 57 30 56 l23 0 -22 -9z m87 -50 c4
-3 2 -11 -6 -18 -8 -7 -14 -8 -14 -2 0 5 -7 10 -15 10 -20 0 -19 15 3 48 l17
26 3 -29 c2 -17 7 -32 12 -35z m210 0 c4 -3 2 -11 -6 -18 -8 -7 -14 -8 -14 -2
0 5 -7 10 -15 10 -20 0 -19 15 3 48 l17 26 3 -29 c2 -17 7 -32 12 -35z m208
38 c3 -13 -3 -18 -20 -17 -17 1 -18 3 -5 6 24 6 21 21 -5 26 -20 5 -20 5 2 4
15 -1 26 -9 28 -19z m-140 -36 c3 -30 1 -33 -19 -30 -30 4 -37 28 -10 35 26 7
27 20 4 27 -14 4 -14 4 2 3 15 -2 21 -11 23 -35z m139 -17 c-4 -8 -17 -15 -29
-14 l-23 0 23 9 c12 5 22 15 22 21 0 7 3 10 6 6 4 -3 4 -13 1 -22z m-1397
-116 c0 -47 -2 -50 -22 -47 -32 4 -39 57 -9 65 12 3 21 12 21 19 0 8 2 14 5
14 3 0 5 -23 5 -51z m401 18 c30 -8 23 -61 -8 -65 -22 -3 -23 0 -22 50 1 29 3
46 6 37 2 -10 13 -19 24 -22z m79 23 c-13 -9 -13 -11 0 -20 10 -6 11 -10 3
-10 -8 0 -14 -14 -15 -32 l-1 -33 -4 33 c-2 17 -8 32 -14 32 -5 0 -1 9 8 20
10 11 22 20 28 20 5 0 3 -5 -5 -10z m630 0 c-13 -9 -13 -11 0 -20 10 -6 11
-10 3 -10 -8 0 -14 -14 -15 -32 l-1 -33 -4 33 c-2 17 -8 32 -14 32 -5 0 -1 9
8 20 10 11 22 20 28 20 5 0 3 -5 -5 -10z m280 0 c-13 -9 -13 -11 0 -20 10 -6
11 -10 3 -10 -8 0 -14 -14 -15 -32 l-1 -33 -4 33 c-2 17 -8 32 -14 32 -5 0 -1
9 8 20 10 11 22 20 28 20 5 0 3 -5 -5 -10z m-1322 -22 c3 -13 -3 -18 -20 -17
-17 1 -18 3 -5 6 24 6 21 21 -5 26 -20 5 -20 5 2 4 15 -1 26 -9 28 -19z m137
-23 c0 -33 -3 -40 -20 -40 -15 0 -21 8 -23 28 -5 39 5 59 25 55 14 -2 18 -13
18 -43z m70 0 c0 -33 -3 -40 -20 -40 -15 0 -20 7 -22 30 -2 43 4 57 24 53 14
-2 18 -13 18 -43z m73 23 c3 -13 -3 -18 -20 -17 -17 1 -18 3 -5 6 24 6 21 21
-5 26 -20 5 -20 5 2 4 15 -1 26 -9 28 -19z m207 -23 c0 -33 -3 -40 -20 -40
-15 0 -21 8 -23 28 -5 39 5 59 25 55 14 -2 18 -13 18 -43z m210 0 c0 -33 -3
-40 -20 -40 -15 0 -20 7 -22 30 -2 43 4 57 24 53 14 -2 18 -13 18 -43z m198
38 c-29 -5 -30 -19 -2 -26 31 -8 22 -51 -11 -54 -25 -3 -25 -3 -2 7 27 12 29
30 2 37 -11 3 -20 14 -20 24 0 14 7 19 28 18 23 -2 24 -2 5 -6z m82 -38 c0
-33 -3 -40 -20 -40 -15 0 -21 8 -23 28 -5 39 5 59 25 55 14 -2 18 -13 18 -43z
m128 35 c-27 -11 -30 -28 -5 -26 12 1 17 -6 17 -24 0 -38 -39 -35 -43 3 -5 41
4 57 30 56 l23 0 -22 -9z m70 0 c-27 -11 -30 -28 -5 -26 12 1 17 -6 17 -24 0
-38 -39 -35 -43 3 -5 41 4 57 30 56 l23 0 -22 -9z m70 3 c-29 -5 -30 -19 -2
-26 31 -8 22 -51 -11 -54 -25 -3 -25 -3 -2 7 27 12 29 30 2 37 -11 3 -20 14
-20 24 0 14 7 19 28 18 23 -2 24 -2 5 -6z m-1190 -23 c-13 -5 -23 -16 -23 -25
0 -9 10 -20 23 -25 17 -8 18 -9 3 -7 -28 3 -43 32 -27 51 8 9 21 16 30 15 11
0 9 -3 -6 -9z m505 -12 c2 -11 -5 -18 -20 -20 l-23 -5 25 -11 25 -12 -25 3
c-26 2 -37 25 -26 53 8 20 40 14 44 -8z m55 12 c-13 -5 -23 -16 -23 -25 0 -9
10 -20 23 -25 17 -8 18 -9 3 -7 -28 3 -43 32 -27 51 8 9 21 16 30 15 11 0 9
-3 -6 -9z m140 0 c-13 -5 -23 -16 -23 -25 0 -9 10 -20 23 -25 17 -8 18 -9 3
-7 -28 3 -43 32 -27 51 8 9 21 16 30 15 11 0 9 -3 -6 -9z m85 -12 c2 -11 -5
-18 -20 -20 l-23 -5 25 -11 25 -12 -25 3 c-26 2 -37 25 -26 53 8 20 40 14 44
-8z m-841 -33 c-4 -8 -17 -15 -29 -14 l-23 0 23 9 c12 5 22 15 22 21 0 7 3 10
6 6 4 -3 4 -13 1 -22z m280 0 c-4 -8 -17 -15 -29 -14 l-23 0 23 9 c12 5 22 15
22 21 0 7 3 10 6 6 4 -3 4 -13 1 -22z m3 -116 c0 -47 -2 -50 -22 -47 -32 4
-39 57 -9 65 12 3 21 12 21 19 0 8 2 14 5 14 3 0 5 -23 5 -51z m51 18 c30 -8
23 -61 -8 -65 -22 -3 -23 0 -22 50 1 29 3 46 6 37 2 -10 13 -19 24 -22z m490
0 c30 -8 23 -61 -8 -65 -22 -3 -23 0 -22 50 1 29 3 46 6 37 2 -10 13 -19 24
-22z m159 -18 c0 -47 -2 -50 -22 -47 -32 4 -39 57 -9 65 12 3 21 12 21 19 0 8
2 14 5 14 3 0 5 -23 5 -51z m-1192 19 c3 -13 -3 -18 -20 -17 -17 1 -18 3 -5 6
24 6 21 21 -5 26 -20 5 -20 5 2 4 15 -1 26 -9 28 -19z m64 -23 c2 -35 0 -45
-12 -45 -11 0 -15 12 -15 45 0 27 5 45 11 45 7 0 14 -20 16 -45z m78 36 c0
-12 -29 -81 -35 -81 -2 0 2 18 10 39 13 38 13 40 -8 44 -18 4 -17 5 6 6 15 0
27 -3 27 -8z m53 2 c-29 -5 -30 -19 -2 -26 31 -8 22 -51 -11 -54 -25 -3 -25
-3 -2 7 27 12 29 30 2 37 -11 3 -20 14 -20 24 0 14 7 19 28 18 23 -2 24 -2 5
-6z m70 0 c-29 -5 -30 -19 -2 -26 31 -8 22 -51 -11 -54 -25 -3 -25 -3 -2 7 27
12 29 30 2 37 -11 3 -20 14 -20 24 0 14 7 19 28 18 23 -2 24 -2 5 -6z m140 0
c-29 -5 -30 -19 -2 -26 31 -8 22 -51 -11 -54 -25 -3 -25 -3 -2 7 27 12 29 30
2 37 -11 3 -20 14 -20 24 0 14 7 19 28 18 23 -2 24 -2 5 -6z m227 -2 c0 -12
-29 -81 -35 -81 -2 0 2 18 10 39 13 38 13 40 -8 44 -18 4 -17 5 6 6 15 0 27
-3 27 -8z m53 2 c-29 -5 -30 -19 -2 -26 31 -8 22 -51 -11 -54 -25 -3 -25 -3
-2 7 27 12 29 30 2 37 -11 3 -20 14 -20 24 0 14 7 19 28 18 23 -2 24 -2 5 -6z
m82 -38 c0 -32 -4 -40 -20 -43 -19 -4 -20 -3 -1 11 18 13 18 14 -3 20 -34 9
-26 61 9 55 10 -2 15 -15 15 -43z m75 36 c0 -12 -29 -81 -35 -81 -2 0 2 18 10
39 13 38 13 40 -8 44 -18 4 -17 5 6 6 15 0 27 -3 27 -8z m65 -36 c0 -33 -3
-40 -20 -40 -15 0 -20 7 -22 30 -2 43 4 57 24 53 14 -2 18 -13 18 -43z m210 0
c0 -33 -3 -40 -20 -40 -15 0 -20 7 -22 30 -2 43 4 57 24 53 14 -2 18 -13 18
-43z m143 23 c3 -13 -3 -18 -20 -17 -17 1 -18 3 -5 6 24 6 21 21 -5 26 -20 5
-20 5 2 4 15 -1 26 -9 28 -19z m72 13 c0 -12 -29 -81 -35 -81 -2 0 2 18 10 39
13 38 13 40 -8 44 -18 4 -17 5 6 6 15 0 27 -3 27 -8z m70 0 c0 -12 -29 -81
-35 -81 -2 0 2 18 10 39 13 38 13 40 -8 44 -18 4 -17 5 6 6 15 0 27 -3 27 -8z
m53 2 c-29 -5 -30 -19 -2 -26 31 -8 22 -51 -11 -54 -25 -3 -25 -3 -2 7 27 12
29 30 2 37 -11 3 -20 14 -20 24 0 14 7 19 28 18 23 -2 24 -2 5 -6z m-1105 -51
c3 -30 1 -33 -19 -30 -30 4 -37 28 -10 35 26 7 27 20 4 27 -14 4 -14 4 2 3 15
-2 21 -11 23 -35z m630 0 c3 -30 1 -33 -19 -30 -30 4 -37 28 -10 35 26 7 27
20 4 27 -14 4 -14 4 2 3 15 -2 21 -11 23 -35z m-981 -17 c-4 -8 -17 -15 -29
-14 l-23 0 23 9 c12 5 22 15 22 21 0 7 3 10 6 6 4 -3 4 -13 1 -22z m1260 0
c-4 -8 -17 -15 -29 -14 l-23 0 23 9 c12 5 22 15 22 21 0 7 3 10 6 6 4 -3 4
-13 1 -22z m-1206 -98 c30 -8 23 -61 -8 -65 -22 -3 -23 0 -22 50 1 29 3 46 6
37 2 -10 13 -19 24 -22z m70 0 c30 -8 23 -61 -8 -65 -22 -3 -23 0 -22 50 1 29
3 46 6 37 2 -10 13 -19 24 -22z m299 -18 c0 -47 -2 -50 -22 -47 -32 4 -39 57
-9 65 12 3 21 12 21 19 0 8 2 14 5 14 3 0 5 -23 5 -51z m560 0 c0 -47 -2 -50
-22 -47 -32 4 -39 57 -9 65 12 3 21 12 21 19 0 8 2 14 5 14 3 0 5 -23 5 -51z
m-985 -4 c0 -33 -3 -40 -20 -40 -15 0 -21 8 -23 28 -5 39 5 59 25 55 14 -2 18
-13 18 -43z m215 -15 c4 -3 2 -11 -6 -18 -8 -7 -14 -8 -14 -2 0 5 -7 10 -15
10 -20 0 -19 15 3 48 l17 26 3 -29 c2 -17 7 -32 12 -35z m70 51 c0 -12 -29
-81 -35 -81 -2 0 2 18 10 39 13 38 13 40 -8 44 -18 4 -17 5 6 6 15 0 27 -3 27
-8z m275 -36 c0 -32 -4 -40 -20 -43 -19 -4 -20 -3 -1 11 18 13 18 14 -3 20
-34 9 -26 61 9 55 10 -2 15 -15 15 -43z m70 0 c0 -33 -3 -40 -20 -40 -15 0
-21 8 -23 28 -5 39 5 59 25 55 14 -2 18 -13 18 -43z m71 31 c3 -8 -2 -26 -11
-39 -15 -24 -15 -26 2 -30 12 -3 9 -5 -9 -6 -34 -1 -35 6 -7 35 22 23 17 49
-7 40 -8 -3 -14 -1 -14 4 0 16 40 12 46 -4z m139 -31 c0 -32 -4 -40 -20 -43
-19 -4 -20 -3 -1 11 18 13 18 14 -3 20 -34 9 -26 61 9 55 10 -2 15 -15 15 -43z
m210 0 c0 -33 -3 -40 -20 -40 -15 0 -20 7 -22 30 -2 43 4 57 24 53 14 -2 18
-13 18 -43z m128 38 c-29 -5 -30 -19 -2 -26 31 -8 22 -51 -11 -54 -25 -3 -25
-3 -2 7 27 12 29 30 2 37 -11 3 -20 14 -20 24 0 14 7 19 28 18 23 -2 24 -2 5
-6z m82 -38 c0 -33 -3 -40 -20 -40 -15 0 -21 8 -23 28 -5 39 5 59 25 55 14 -2
18 -13 18 -43z m75 36 c0 -12 -29 -81 -35 -81 -2 0 2 18 10 39 13 38 13 40 -8
44 -18 4 -17 5 6 6 15 0 27 -3 27 -8z m123 -1 c-27 -11 -30 -28 -5 -26 12 1
17 -6 17 -24 0 -38 -39 -35 -43 3 -5 41 4 57 30 56 l23 0 -22 -9z m-1525 -48
c3 -30 1 -33 -19 -30 -30 4 -37 28 -10 35 26 7 27 20 4 27 -14 4 -14 4 2 3 15
-2 21 -11 23 -35z m420 0 c3 -30 1 -33 -19 -30 -30 4 -37 28 -10 35 26 7 27
20 4 27 -14 4 -14 4 2 3 15 -2 21 -11 23 -35z m140 0 c3 -30 1 -33 -19 -30
-30 4 -37 28 -10 35 26 7 27 20 4 27 -14 4 -14 4 2 3 15 -2 21 -11 23 -35z
m265 28 c-13 -5 -23 -16 -23 -25 0 -9 10 -20 23 -25 17 -8 18 -9 3 -7 -28 3
-43 32 -27 51 8 9 21 16 30 15 11 0 9 -3 -6 -9z m155 -12 c2 -11 -5 -18 -20
-20 l-23 -5 25 -11 25 -12 -25 3 c-26 2 -37 25 -26 53 8 20 40 14 44 -8z m210
0 c2 -11 -5 -18 -20 -20 l-23 -5 25 -11 25 -12 -25 3 c-26 2 -37 25 -26 53 8
20 40 14 44 -8z m265 12 c-13 -5 -23 -16 -23 -25 0 -9 10 -20 23 -25 17 -8 18
-9 3 -7 -28 3 -43 32 -27 51 8 9 21 16 30 15 11 0 9 -3 -6 -9z m-1313 -161 c0
-47 -2 -50 -22 -47 -32 4 -39 57 -9 65 12 3 21 12 21 19 0 8 2 14 5 14 3 0 5
-23 5 -51z m70 0 c0 -47 -2 -50 -22 -47 -32 4 -39 57 -9 65 12 3 21 12 21 19
0 8 2 14 5 14 3 0 5 -23 5 -51z m340 41 c-13 -9 -13 -11 0 -20 10 -6 11 -10 3
-10 -8 0 -14 -14 -15 -32 l-1 -33 -4 33 c-2 17 -8 32 -14 32 -5 0 -1 9 8 20
10 11 22 20 28 20 5 0 3 -5 -5 -10z m150 -41 c0 -47 -2 -50 -22 -47 -32 4 -39
57 -9 65 12 3 21 12 21 19 0 8 2 14 5 14 3 0 5 -23 5 -51z m541 18 c30 -8 23
-61 -8 -65 -22 -3 -23 0 -22 50 1 29 3 46 6 37 2 -10 13 -19 24 -22z m-1311
-37 c4 -3 2 -11 -6 -18 -8 -7 -14 -8 -14 -2 0 5 -7 10 -15 10 -20 0 -19 15 3
48 l17 26 3 -29 c2 -17 7 -32 12 -35z m65 15 c0 -33 -3 -40 -20 -40 -15 0 -21
8 -23 28 -5 39 5 59 25 55 14 -2 18 -13 18 -43z m285 -15 c4 -3 2 -11 -6 -18
-8 -7 -14 -8 -14 -2 0 5 -7 10 -15 10 -20 0 -19 15 3 48 l17 26 3 -29 c2 -17
7 -32 12 -35z m65 15 c0 -33 -3 -40 -20 -40 -15 0 -20 7 -22 30 -2 43 4 57 24
53 14 -2 18 -13 18 -43z m70 0 c0 -32 -4 -40 -20 -43 -19 -4 -20 -3 -1 11 18
13 18 14 -3 20 -34 9 -26 61 9 55 10 -2 15 -15 15 -43z m73 23 c3 -13 -3 -18
-20 -17 -17 1 -18 3 -5 6 24 6 21 21 -5 26 -20 5 -20 5 2 4 15 -1 26 -9 28
-19z m134 -23 c2 -35 0 -45 -12 -45 -11 0 -15 12 -15 45 0 27 5 45 11 45 7 0
14 -20 16 -45z m143 0 c0 -33 -3 -40 -20 -40 -15 0 -21 8 -23 28 -5 39 5 59
25 55 14 -2 18 -13 18 -43z m58 38 c-29 -5 -30 -19 -2 -26 31 -8 22 -51 -11
-54 -25 -3 -25 -3 -2 7 27 12 29 30 2 37 -11 3 -20 14 -20 24 0 14 7 19 28 18
23 -2 24 -2 5 -6z m87 -2 c0 -12 -29 -81 -35 -81 -2 0 2 18 10 39 13 38 13 40
-8 44 -18 4 -17 5 6 6 15 0 27 -3 27 -8z m65 -36 c0 -32 -4 -40 -20 -43 -19
-4 -20 -3 -1 11 18 13 18 14 -3 20 -34 9 -26 61 9 55 10 -2 15 -15 15 -43z
m128 38 c-29 -5 -30 -19 -2 -26 31 -8 22 -51 -11 -54 -25 -3 -25 -3 -2 7 27
12 29 30 2 37 -11 3 -20 14 -20 24 0 14 7 19 28 18 23 -2 24 -2 5 -6z m210 0
c-29 -5 -30 -19 -2 -26 31 -8 22 -51 -11 -54 -25 -3 -25 -3 -2 7 27 12 29 30
2 37 -11 3 -20 14 -20 24 0 14 7 19 28 18 23 -2 24 -2 5 -6z m82 -38 c0 -33
-3 -40 -20 -40 -15 0 -21 8 -23 28 -5 39 5 59 25 55 14 -2 18 -13 18 -43z
m145 -15 c4 -3 2 -11 -6 -18 -8 -7 -14 -8 -14 -2 0 5 -7 10 -15 10 -20 0 -19
15 3 48 l17 26 3 -29 c2 -17 7 -32 12 -35z m-1472 18 c2 -11 -5 -18 -20 -20
l-23 -5 25 -11 25 -12 -25 3 c-26 2 -37 25 -26 53 8 20 40 14 44 -8z m980 -16
c3 -30 1 -33 -19 -30 -30 4 -37 28 -10 35 26 7 27 20 4 27 -14 4 -14 4 2 3 15
-2 21 -11 23 -35z m140 0 c3 -30 1 -33 -19 -30 -30 4 -37 28 -10 35 26 7 27
20 4 27 -14 4 -14 4 2 3 15 -2 21 -11 23 -35z m265 28 c-13 -5 -23 -16 -23
-25 0 -9 10 -20 23 -25 17 -8 18 -9 3 -7 -28 3 -43 32 -27 51 8 9 21 16 30 15
11 0 9 -3 -6 -9z m-966 -45 c-4 -8 -17 -15 -29 -14 l-23 0 23 9 c12 5 22 15
22 21 0 7 3 10 6 6 4 -3 4 -13 1 -22z m54 -98 c30 -8 23 -61 -8 -65 -22 -3
-23 0 -22 50 1 29 3 46 6 37 2 -10 13 -19 24 -22z m159 -18 c0 -47 -2 -50 -22
-47 -32 4 -39 57 -9 65 12 3 21 12 21 19 0 8 2 14 5 14 3 0 5 -23 5 -51z m550
41 c-13 -9 -13 -11 0 -20 10 -6 11 -10 3 -10 -8 0 -14 -14 -15 -32 l-1 -33 -4
33 c-2 17 -8 32 -14 32 -5 0 -1 9 8 20 10 11 22 20 28 20 5 0 3 -5 -5 -10z
m-1395 -45 c0 -33 -3 -40 -20 -40 -15 0 -21 8 -23 28 -5 39 5 59 25 55 14 -2
18 -13 18 -43z m128 35 c-27 -11 -30 -28 -5 -26 12 1 17 -6 17 -24 0 -38 -39
-35 -43 3 -5 41 4 57 30 56 l23 0 -22 -9z m157 -50 c4 -3 2 -11 -6 -18 -8 -7
-14 -8 -14 -2 0 5 -7 10 -15 10 -20 0 -19 15 3 48 l17 26 3 -29 c2 -17 7 -32
12 -35z m66 46 c3 -8 -2 -26 -11 -39 -15 -24 -15 -26 2 -30 12 -3 9 -5 -9 -6
-34 -1 -35 6 -7 35 22 23 17 49 -7 40 -8 -3 -14 -1 -14 4 0 16 40 12 46 -4z
m70 0 c3 -8 -2 -26 -11 -39 -15 -24 -15 -26 2 -30 12 -3 9 -5 -9 -6 -34 -1
-35 6 -7 35 22 23 17 49 -7 40 -8 -3 -14 -1 -14 4 0 16 40 12 46 -4z m69 -31
c0 -32 -4 -40 -20 -43 -19 -4 -20 -3 -1 11 18 13 18 14 -3 20 -34 9 -26 61 9
55 10 -2 15 -15 15 -43z m67 0 c2 -35 0 -45 -12 -45 -11 0 -15 12 -15 45 0 27
5 45 11 45 7 0 14 -20 16 -45z m74 31 c3 -8 -2 -26 -11 -39 -15 -24 -15 -26 2
-30 12 -3 9 -5 -9 -6 -34 -1 -35 6 -7 35 22 23 17 49 -7 40 -8 -3 -14 -1 -14
4 0 16 40 12 46 -4z m139 -31 c0 -33 -3 -40 -20 -40 -15 0 -21 8 -23 28 -5 39
5 59 25 55 14 -2 18 -13 18 -43z m143 23 c3 -13 -3 -18 -20 -17 -17 1 -18 3
-5 6 24 6 21 21 -5 26 -20 5 -20 5 2 4 15 -1 26 -9 28 -19z m67 -23 c0 -32 -4
-40 -20 -43 -19 -4 -20 -3 -1 11 18 13 18 14 -3 20 -34 9 -26 61 9 55 10 -2
15 -15 15 -43z m71 31 c3 -8 -2 -26 -11 -39 -15 -24 -15 -26 2 -30 12 -3 9 -5
-9 -6 -34 -1 -35 6 -7 35 22 23 17 49 -7 40 -8 -3 -14 -1 -14 4 0 16 40 12 46
-4z m74 -46 c4 -3 2 -11 -6 -18 -8 -7 -14 -8 -14 -2 0 5 -7 10 -15 10 -20 0
-19 15 3 48 l17 26 3 -29 c2 -17 7 -32 12 -35z m53 50 c-27 -11 -30 -28 -5
-26 12 1 17 -6 17 -24 0 -38 -39 -35 -43 3 -5 41 4 57 30 56 l23 0 -22 -9z
m70 0 c-27 -11 -30 -28 -5 -26 12 1 17 -6 17 -24 0 -38 -39 -35 -43 3 -5 41 4
57 30 56 l23 0 -22 -9z m85 -12 c3 -13 -3 -18 -20 -17 -17 1 -18 3 -5 6 24 6
21 21 -5 26 -20 5 -20 5 2 4 15 -1 26 -9 28 -19z m137 -23 c0 -32 -4 -40 -20
-43 -19 -4 -20 -3 -1 11 18 13 18 14 -3 20 -34 9 -26 61 9 55 10 -2 15 -15 15
-43z m71 31 c3 -8 -2 -26 -11 -39 -15 -24 -15 -26 2 -30 12 -3 9 -5 -9 -6 -34
-1 -35 6 -7 35 22 23 17 49 -7 40 -8 -3 -14 -1 -14 4 0 16 40 12 46 -4z m139
-31 c0 -32 -4 -40 -20 -43 -19 -4 -20 -3 -1 11 18 13 18 14 -3 20 -34 9 -26
61 9 55 10 -2 15 -15 15 -43z m-1622 15 c-13 -5 -23 -16 -23 -25 0 -9 10 -20
23 -25 17 -8 18 -9 3 -7 -28 3 -43 32 -27 51 8 9 21 16 30 15 11 0 9 -3 -6 -9z
m155 -28 c3 -30 1 -33 -19 -30 -30 4 -37 28 -10 35 26 7 27 20 4 27 -14 4 -14
4 2 3 15 -2 21 -11 23 -35z m1400 0 c3 -30 1 -33 -19 -30 -30 4 -37 28 -10 35
26 7 27 20 4 27 -14 4 -14 4 2 3 15 -2 21 -11 23 -35z m-701 -17 c-4 -8 -17
-15 -29 -14 l-23 0 23 9 c12 5 22 15 22 21 0 7 3 10 6 6 4 -3 4 -13 1 -22z
m420 0 c-4 -8 -17 -15 -29 -14 l-23 0 23 9 c12 5 22 15 22 21 0 7 3 10 6 6 4
-3 4 -13 1 -22z m-1267 -75 c-13 -9 -13 -11 0 -20 10 -6 11 -10 3 -10 -8 0
-14 -14 -15 -32 l-1 -33 -4 33 c-2 17 -8 32 -14 32 -5 0 -1 9 8 20 10 11 22
20 28 20 5 0 3 -5 -5 -10z m80 -41 c0 -47 -2 -50 -22 -47 -32 4 -39 57 -9 65
12 3 21 12 21 19 0 8 2 14 5 14 3 0 5 -23 5 -51z m280 0 c0 -47 -2 -50 -22
-47 -32 4 -39 57 -9 65 12 3 21 12 21 19 0 8 2 14 5 14 3 0 5 -23 5 -51z m270
41 c-13 -9 -13 -11 0 -20 10 -6 11 -10 3 -10 -8 0 -14 -14 -15 -32 l-1 -33 -4
33 c-2 17 -8 32 -14 32 -5 0 -1 9 8 20 10 11 22 20 28 20 5 0 3 -5 -5 -10z
m500 -41 c0 -47 -2 -50 -22 -47 -32 4 -39 57 -9 65 12 3 21 12 21 19 0 8 2 14
5 14 3 0 5 -23 5 -51z m-1265 -4 c0 -33 -3 -40 -20 -40 -15 0 -21 8 -23 28 -5
39 5 59 25 55 14 -2 18 -13 18 -43z m280 0 c0 -32 -4 -40 -20 -43 -19 -4 -20
-3 -1 11 18 13 18 14 -3 20 -34 9 -26 61 9 55 10 -2 15 -15 15 -43z m143 23
c3 -13 -3 -18 -20 -17 -17 1 -18 3 -5 6 24 6 21 21 -5 26 -20 5 -20 5 2 4 15
-1 26 -9 28 -19z m137 -23 c0 -32 -4 -40 -20 -43 -19 -4 -20 -3 -1 11 18 13
18 14 -3 20 -34 9 -26 61 9 55 10 -2 15 -15 15 -43z m75 -15 c4 -3 2 -11 -6
-18 -8 -7 -14 -8 -14 -2 0 5 -7 10 -15 10 -20 0 -19 15 3 48 l17 26 3 -29 c2
-17 7 -32 12 -35z m202 15 c2 -35 0 -45 -12 -45 -11 0 -15 12 -15 45 0 27 5
45 11 45 7 0 14 -20 16 -45z m73 0 c0 -32 -4 -40 -20 -43 -19 -4 -20 -3 -1 11
18 13 18 14 -3 20 -34 9 -26 61 9 55 10 -2 15 -15 15 -43z m67 0 c2 -35 0 -45
-12 -45 -11 0 -15 12 -15 45 0 27 5 45 11 45 7 0 14 -20 16 -45z m78 36 c0
-12 -29 -81 -35 -81 -2 0 2 18 10 39 13 38 13 40 -8 44 -18 4 -17 5 6 6 15 0
27 -3 27 -8z m53 2 c-29 -5 -30 -19 -2 -26 31 -8 22 -51 -11 -54 -25 -3 -25
-3 -2 7 27 12 29 30 2 37 -11 3 -20 14 -20 24 0 14 7 19 28 18 23 -2 24 -2 5
-6z m70 0 c-29 -5 -30 -19 -2 -26 31 -8 22 -51 -11 -54 -25 -3 -25 -3 -2 7 27
12 29 30 2 37 -11 3 -20 14 -20 24 0 14 7 19 28 18 23 -2 24 -2 5 -6z m155
-15 c3 -13 -3 -18 -20 -17 -17 1 -18 3 -5 6 24 6 21 21 -5 26 -20 5 -20 5 2 4
15 -1 26 -9 28 -19z m72 -38 c4 -3 2 -11 -6 -18 -8 -7 -14 -8 -14 -2 0 5 -7
10 -15 10 -20 0 -19 15 3 48 l17 26 3 -29 c2 -17 7 -32 12 -35z m70 51 c0 -12
-29 -81 -35 -81 -2 0 2 18 10 39 13 38 13 40 -8 44 -18 4 -17 5 6 6 15 0 27
-3 27 -8z m123 2 c-29 -5 -30 -19 -2 -26 31 -8 22 -51 -11 -54 -25 -3 -25 -3
-2 7 27 12 29 30 2 37 -11 3 -20 14 -20 24 0 14 7 19 28 18 23 -2 24 -2 5 -6z
m70 0 c-29 -5 -30 -19 -2 -26 31 -8 22 -51 -11 -54 -25 -3 -25 -3 -2 7 27 12
29 30 2 37 -11 3 -20 14 -20 24 0 14 7 19 28 18 23 -2 24 -2 5 -6z m-1610 -23
c-13 -5 -23 -16 -23 -25 0 -9 10 -20 23 -25 17 -8 18 -9 3 -7 -28 3 -43 32
-27 51 8 9 21 16 30 15 11 0 9 -3 -6 -9z m295 -28 c3 -30 1 -33 -19 -30 -30 4
-37 28 -10 35 26 7 27 20 4 27 -14 4 -14 4 2 3 15 -2 21 -11 23 -35z m350 0
c3 -30 1 -33 -19 -30 -30 4 -37 28 -10 35 26 7 27 20 4 27 -14 4 -14 4 2 3 15
-2 21 -11 23 -35z m840 16 c2 -11 -5 -18 -20 -20 l-23 -5 25 -11 25 -12 -25 3
c-26 2 -37 25 -26 53 8 20 40 14 44 -8z m210 0 c2 -11 -5 -18 -20 -20 l-23 -5
25 -11 25 -12 -25 3 c-26 2 -37 25 -26 53 8 20 40 14 44 -8z m-1331 -33 c-4
-8 -17 -15 -29 -14 l-23 0 23 9 c12 5 22 15 22 21 0 7 3 10 6 6 4 -3 4 -13 1
-22z m910 0 c-4 -8 -17 -15 -29 -14 l-23 0 23 9 c12 5 22 15 22 21 0 7 3 10 6
6 4 -3 4 -13 1 -22z m-1047 -116 c0 -47 -2 -50 -22 -47 -32 4 -39 57 -9 65 12
3 21 12 21 19 0 8 2 14 5 14 3 0 5 -23 5 -51z m630 0 c0 -47 -2 -50 -22 -47
-32 4 -39 57 -9 65 12 3 21 12 21 19 0 8 2 14 5 14 3 0 5 -23 5 -51z m51 18
c30 -8 23 -61 -8 -65 -22 -3 -23 0 -22 50 1 29 3 46 6 37 2 -10 13 -19 24 -22z
m499 23 c-13 -9 -13 -11 0 -20 10 -6 11 -10 3 -10 -8 0 -14 -14 -15 -32 l-1
-33 -4 33 c-2 17 -8 32 -14 32 -5 0 -1 9 8 20 10 11 22 20 28 20 5 0 3 -5 -5
-10z m131 -23 c30 -8 23 -61 -8 -65 -22 -3 -23 0 -22 50 1 29 3 46 6 37 2 -10
13 -19 24 -22z m140 0 c30 -8 23 -61 -8 -65 -22 -3 -23 0 -22 50 1 29 3 46 6
37 2 -10 13 -19 24 -22z m-1818 13 c-27 -11 -30 -28 -5 -26 12 1 17 -6 17 -24
0 -38 -39 -35 -43 3 -5 41 4 57 30 56 l23 0 -22 -9z m85 -12 c3 -13 -3 -18
-20 -17 -17 1 -18 3 -5 6 24 6 21 21 -5 26 -20 5 -20 5 2 4 15 -1 26 -9 28
-19z m67 -23 c0 -33 -3 -40 -20 -40 -15 0 -21 8 -23 28 -5 39 5 59 25 55 14
-2 18 -13 18 -43z m58 35 c-27 -11 -30 -28 -5 -26 12 1 17 -6 17 -24 0 -38
-39 -35 -43 3 -5 41 4 57 30 56 l23 0 -22 -9z m82 -35 c0 -32 -4 -40 -20 -43
-19 -4 -20 -3 -1 11 18 13 18 14 -3 20 -34 9 -26 61 9 55 10 -2 15 -15 15 -43z
m268 38 c-29 -5 -30 -19 -2 -26 31 -8 22 -51 -11 -54 -25 -3 -25 -3 -2 7 27
12 29 30 2 37 -11 3 -20 14 -20 24 0 14 7 19 28 18 23 -2 24 -2 5 -6z m70 -3
c-27 -11 -30 -28 -5 -26 12 1 17 -6 17 -24 0 -38 -39 -35 -43 3 -5 41 4 57 30
56 l23 0 -22 -9z m79 -35 c2 -35 0 -45 -12 -45 -11 0 -15 12 -15 45 0 27 5 45
11 45 7 0 14 -20 16 -45z m70 0 c2 -35 0 -45 -12 -45 -11 0 -15 12 -15 45 0
27 5 45 11 45 7 0 14 -20 16 -45z m131 38 c-29 -5 -30 -19 -2 -26 31 -8 22
-51 -11 -54 -25 -3 -25 -3 -2 7 27 12 29 30 2 37 -11 3 -20 14 -20 24 0 14 7
19 28 18 23 -2 24 -2 5 -6z m219 -38 c2 -35 0 -45 -12 -45 -11 0 -15 12 -15
45 0 27 5 45 11 45 7 0 14 -20 16 -45z m143 0 c0 -33 -3 -40 -20 -40 -15 0
-20 7 -22 30 -2 43 4 57 24 53 14 -2 18 -13 18 -43z m70 0 c0 -32 -4 -40 -20
-43 -19 -4 -20 -3 -1 11 18 13 18 14 -3 20 -34 9 -26 61 9 55 10 -2 15 -15 15
-43z m58 38 c-29 -5 -30 -19 -2 -26 31 -8 22 -51 -11 -54 -25 -3 -25 -3 -2 7
27 12 29 30 2 37 -11 3 -20 14 -20 24 0 14 7 19 28 18 23 -2 24 -2 5 -6z m70
-3 c-27 -11 -30 -28 -5 -26 12 1 17 -6 17 -24 0 -38 -39 -35 -43 3 -5 41 4 57
30 56 l23 0 -22 -9z m295 -12 c3 -13 -3 -18 -20 -17 -17 1 -18 3 -5 6 24 6 21
21 -5 26 -20 5 -20 5 2 4 15 -1 26 -9 28 -19z m-1345 -8 c-13 -5 -23 -16 -23
-25 0 -9 10 -20 23 -25 17 -8 18 -9 3 -7 -28 3 -43 32 -27 51 8 9 21 16 30 15
11 0 9 -3 -6 -9z m70 0 c-13 -5 -23 -16 -23 -25 0 -9 10 -20 23 -25 17 -8 18
-9 3 -7 -28 3 -43 32 -27 51 8 9 21 16 30 15 11 0 9 -3 -6 -9z m365 -28 c3
-30 1 -33 -19 -30 -30 4 -37 28 -10 35 26 7 27 20 4 27 -14 4 -14 4 2 3 15 -2
21 -11 23 -35z m335 28 c-13 -5 -23 -16 -23 -25 0 -9 10 -20 23 -25 17 -8 18
-9 3 -7 -28 3 -43 32 -27 51 8 9 21 16 30 15 11 0 9 -3 -6 -9z m420 0 c-13 -5
-23 -16 -23 -25 0 -9 10 -20 23 -25 17 -8 18 -9 3 -7 -28 3 -43 32 -27 51 8 9
21 16 30 15 11 0 9 -3 -6 -9z m-1526 -45 c-4 -8 -17 -15 -29 -14 l-23 0 23 9
c12 5 22 15 22 21 0 7 3 10 6 6 4 -3 4 -13 1 -22z m1680 0 c-4 -8 -17 -15 -29
-14 l-23 0 23 9 c12 5 22 15 22 21 0 7 3 10 6 6 4 -3 4 -13 1 -22z m-1057 -75
c-13 -9 -13 -11 0 -20 10 -6 11 -10 3 -10 -8 0 -14 -14 -15 -32 l-1 -33 -4 33
c-2 17 -8 32 -14 32 -5 0 -1 9 8 20 10 11 22 20 28 20 5 0 3 -5 -5 -10z m70 0
c-13 -9 -13 -11 0 -20 10 -6 11 -10 3 -10 -8 0 -14 -14 -15 -32 l-1 -33 -4 33
c-2 17 -8 32 -14 32 -5 0 -1 9 8 20 10 11 22 20 28 20 5 0 3 -5 -5 -10z m350
0 c-13 -9 -13 -11 0 -20 10 -6 11 -10 3 -10 -8 0 -14 -14 -15 -32 l-1 -33 -4
33 c-2 17 -8 32 -14 32 -5 0 -1 9 8 20 10 11 22 20 28 20 5 0 3 -5 -5 -10z
m61 -23 c30 -8 23 -61 -8 -65 -22 -3 -23 0 -22 50 1 29 3 46 6 37 2 -10 13
-19 24 -22z m-1173 1 c3 -13 -3 -18 -20 -17 -17 1 -18 3 -5 6 24 6 21 21 -5
26 -20 5 -20 5 2 4 15 -1 26 -9 28 -19z m67 -23 c0 -33 -3 -40 -20 -40 -15 0
-20 7 -22 30 -2 43 4 57 24 53 14 -2 18 -13 18 -43z m75 36 c0 -12 -29 -81
-35 -81 -2 0 2 18 10 39 13 38 13 40 -8 44 -18 4 -17 5 6 6 15 0 27 -3 27 -8z
m68 -13 c3 -13 -3 -18 -20 -17 -17 1 -18 3 -5 6 24 6 21 21 -5 26 -20 5 -20 5
2 4 15 -1 26 -9 28 -19z m138 8 c3 -8 -2 -26 -11 -39 -15 -24 -15 -26 2 -30
12 -3 9 -5 -9 -6 -34 -1 -35 6 -7 35 22 23 17 49 -7 40 -8 -3 -14 -1 -14 4 0
16 40 12 46 -4z m144 5 c0 -12 -29 -81 -35 -81 -2 0 2 18 10 39 13 38 13 40
-8 44 -18 4 -17 5 6 6 15 0 27 -3 27 -8z m53 -1 c-27 -11 -30 -28 -5 -26 12 1
17 -6 17 -24 0 -38 -39 -35 -43 3 -5 41 4 57 30 56 l23 0 -22 -9z m87 1 c0
-12 -29 -81 -35 -81 -2 0 2 18 10 39 13 38 13 40 -8 44 -18 4 -17 5 6 6 15 0
27 -3 27 -8z m210 -51 c4 -3 2 -11 -6 -18 -8 -7 -14 -8 -14 -2 0 5 -7 10 -15
10 -20 0 -19 15 3 48 l17 26 3 -29 c2 -17 7 -32 12 -35z m65 15 c0 -32 -4 -40
-20 -43 -19 -4 -20 -3 -1 11 18 13 18 14 -3 20 -34 9 -26 61 9 55 10 -2 15
-15 15 -43z m58 35 c-27 -11 -30 -28 -5 -26 12 1 17 -6 17 -24 0 -38 -39 -35
-43 3 -5 41 4 57 30 56 l23 0 -22 -9z m79 -35 c2 -35 0 -45 -12 -45 -11 0 -15
12 -15 45 0 27 5 45 11 45 7 0 14 -20 16 -45z m284 31 c3 -8 -2 -26 -11 -39
-15 -24 -15 -26 2 -30 12 -3 9 -5 -9 -6 -34 -1 -35 6 -7 35 22 23 17 49 -7 40
-8 -3 -14 -1 -14 4 0 16 40 12 46 -4z m74 5 c0 -12 -29 -81 -35 -81 -2 0 2 18
10 39 13 38 13 40 -8 44 -18 4 -17 5 6 6 15 0 27 -3 27 -8z m132 -36 c2 -35 0
-45 -12 -45 -11 0 -15 12 -15 45 0 27 5 45 11 45 7 0 14 -20 16 -45z m76 23
c3 -13 -3 -18 -20 -17 -17 1 -18 3 -5 6 24 6 21 21 -5 26 -20 5 -20 5 2 4 15
-1 26 -9 28 -19z m72 -38 c4 -3 2 -11 -6 -18 -8 -7 -14 -8 -14 -2 0 5 -7 10
-15 10 -20 0 -19 15 3 48 l17 26 3 -29 c2 -17 7 -32 12 -35z m65 15 c0 -33 -3
-40 -20 -40 -15 0 -20 7 -22 30 -2 43 4 57 24 53 14 -2 18 -13 18 -43z m70 0
c0 -33 -3 -40 -20 -40 -15 0 -21 8 -23 28 -5 39 5 59 25 55 14 -2 18 -13 18
-43z m-1887 3 c2 -11 -5 -18 -20 -20 l-23 -5 25 -11 25 -12 -25 3 c-26 2 -37
25 -26 53 8 20 40 14 44 -8z m335 12 c-13 -5 -23 -16 -23 -25 0 -9 10 -20 23
-25 17 -8 18 -9 3 -7 -28 3 -43 32 -27 51 8 9 21 16 30 15 11 0 9 -3 -6 -9z
m140 0 c-13 -5 -23 -16 -23 -25 0 -9 10 -20 23 -25 17 -8 18 -9 3 -7 -28 3
-43 32 -27 51 8 9 21 16 30 15 11 0 9 -3 -6 -9z m840 0 c-13 -5 -23 -16 -23
-25 0 -9 10 -20 23 -25 17 -8 18 -9 3 -7 -28 3 -43 32 -27 51 8 9 21 16 30 15
11 0 9 -3 -6 -9z m210 0 c-13 -5 -23 -16 -23 -25 0 -9 10 -20 23 -25 17 -8 18
-9 3 -7 -28 3 -43 32 -27 51 8 9 21 16 30 15 11 0 9 -3 -6 -9z m-1456 -45 c-4
-8 -17 -15 -29 -14 l-23 0 23 9 c12 5 22 15 22 21 0 7 3 10 6 6 4 -3 4 -13 1
-22z m210 0 c-4 -8 -17 -15 -29 -14 l-23 0 23 9 c12 5 22 15 22 21 0 7 3 10 6
6 4 -3 4 -13 1 -22z m1400 0 c-4 -8 -17 -15 -29 -14 l-23 0 23 9 c12 5 22 15
22 21 0 7 3 10 6 6 4 -3 4 -13 1 -22z m-1267 -75 c-13 -9 -13 -11 0 -20 10 -6
11 -10 3 -10 -8 0 -14 -14 -15 -32 l-1 -33 -4 33 c-2 17 -8 32 -14 32 -5 0 -1
9 8 20 10 11 22 20 28 20 5 0 3 -5 -5 -10z m551 -23 c30 -8 23 -61 -8 -65 -22
-3 -23 0 -22 50 1 29 3 46 6 37 2 -10 13 -19 24 -22z m289 23 c-13 -9 -13 -11
0 -20 10 -6 11 -10 3 -10 -8 0 -14 -14 -15 -32 l-1 -33 -4 33 c-2 17 -8 32
-14 32 -5 0 -1 9 8 20 10 11 22 20 28 20 5 0 3 -5 -5 -10z m280 0 c-13 -9 -13
-11 0 -20 10 -6 11 -10 3 -10 -8 0 -14 -14 -15 -32 l-1 -33 -4 33 c-2 17 -8
32 -14 32 -5 0 -1 9 8 20 10 11 22 20 28 20 5 0 3 -5 -5 -10z m-1600 -9 c0
-12 -29 -81 -35 -81 -2 0 2 18 10 39 13 38 13 40 -8 44 -18 4 -17 5 6 6 15 0
27 -3 27 -8z m65 -36 c0 -33 -3 -40 -20 -40 -15 0 -20 7 -22 30 -2 43 4 57 24
53 14 -2 18 -13 18 -43z m140 0 c0 -32 -4 -40 -20 -43 -19 -4 -20 -3 -1 11 18
13 18 14 -3 20 -34 9 -26 61 9 55 10 -2 15 -15 15 -43z m75 -15 c4 -3 2 -11
-6 -18 -8 -7 -14 -8 -14 -2 0 5 -7 10 -15 10 -20 0 -19 15 3 48 l17 26 3 -29
c2 -17 7 -32 12 -35z m136 46 c3 -8 -2 -26 -11 -39 -15 -24 -15 -26 2 -30 12
-3 9 -5 -9 -6 -34 -1 -35 6 -7 35 22 23 17 49 -7 40 -8 -3 -14 -1 -14 4 0 16
40 12 46 -4z m214 5 c0 -12 -29 -81 -35 -81 -2 0 2 18 10 39 13 38 13 40 -8
44 -18 4 -17 5 6 6 15 0 27 -3 27 -8z m68 -13 c3 -13 -3 -18 -20 -17 -17 1
-18 3 -5 6 24 6 21 21 -5 26 -20 5 -20 5 2 4 15 -1 26 -9 28 -19z m72 -38 c4
-3 2 -11 -6 -18 -8 -7 -14 -8 -14 -2 0 5 -7 10 -15 10 -20 0 -19 15 3 48 l17
26 3 -29 c2 -17 7 -32 12 -35z m65 15 c0 -32 -4 -40 -20 -43 -19 -4 -20 -3 -1
11 18 13 18 14 -3 20 -34 9 -26 61 9 55 10 -2 15 -15 15 -43z m75 36 c0 -12
-29 -81 -35 -81 -2 0 2 18 10 39 13 38 13 40 -8 44 -18 4 -17 5 6 6 15 0 27
-3 27 -8z m62 -36 c2 -35 0 -45 -12 -45 -11 0 -15 12 -15 45 0 27 5 45 11 45
7 0 14 -20 16 -45z m143 0 c0 -32 -4 -40 -20 -43 -19 -4 -20 -3 -1 11 18 13
18 14 -3 20 -34 9 -26 61 9 55 10 -2 15 -15 15 -43z m67 0 c2 -35 0 -45 -12
-45 -11 0 -15 12 -15 45 0 27 5 45 11 45 7 0 14 -20 16 -45z m73 0 c0 -32 -4
-40 -20 -43 -19 -4 -20 -3 -1 11 18 13 18 14 -3 20 -34 9 -26 61 9 55 10 -2
15 -15 15 -43z m283 23 c3 -13 -3 -18 -20 -17 -17 1 -18 3 -5 6 24 6 21 21 -5
26 -20 5 -20 5 2 4 15 -1 26 -9 28 -19z m137 -23 c0 -33 -3 -40 -20 -40 -15 0
-21 8 -23 28 -5 39 5 59 25 55 14 -2 18 -13 18 -43z m67 0 c2 -35 0 -45 -12
-45 -11 0 -15 12 -15 45 0 27 5 45 11 45 7 0 14 -20 16 -45z m70 0 c2 -35 0
-45 -12 -45 -11 0 -15 12 -15 45 0 27 5 45 11 45 7 0 14 -20 16 -45z m-1674 3
c2 -11 -5 -18 -20 -20 l-23 -5 25 -11 25 -12 -25 3 c-26 2 -37 25 -26 53 8 20
40 14 44 -8z m195 12 c-13 -5 -23 -16 -23 -25 0 -9 10 -20 23 -25 17 -8 18 -9
3 -7 -28 3 -43 32 -27 51 8 9 21 16 30 15 11 0 9 -3 -6 -9z m225 -12 c2 -11
-5 -18 -20 -20 l-23 -5 25 -11 25 -12 -25 3 c-26 2 -37 25 -26 53 8 20 40 14
44 -8z m840 -16 c3 -30 1 -33 -19 -30 -30 4 -37 28 -10 35 26 7 27 20 4 27
-14 4 -14 4 2 3 15 -2 21 -11 23 -35z m70 16 c2 -11 -5 -18 -20 -20 l-23 -5
25 -11 25 -12 -25 3 c-26 2 -37 25 -26 53 8 20 40 14 44 -8z m420 -16 c3 -30
1 -33 -19 -30 -30 4 -37 28 -10 35 26 7 27 20 4 27 -14 4 -14 4 2 3 15 -2 21
-11 23 -35z m70 16 c2 -11 -5 -18 -20 -20 l-23 -5 25 -11 25 -12 -25 3 c-26 2
-37 25 -26 53 8 20 40 14 44 -8z m-1261 -33 c-4 -8 -17 -15 -29 -14 l-23 0 23
9 c12 5 22 15 22 21 0 7 3 10 6 6 4 -3 4 -13 1 -22z m840 0 c-4 -8 -17 -15
-29 -14 l-23 0 23 9 c12 5 22 15 22 21 0 7 3 10 6 6 4 -3 4 -13 1 -22z m-786
-98 c30 -8 23 -61 -8 -65 -22 -3 -23 0 -22 50 1 29 3 46 6 37 2 -10 13 -19 24
-22z m210 0 c30 -8 23 -61 -8 -65 -22 -3 -23 0 -22 50 1 29 3 46 6 37 2 -10
13 -19 24 -22z m579 -18 c0 -47 -2 -50 -22 -47 -32 4 -39 57 -9 65 12 3 21 12
21 19 0 8 2 14 5 14 3 0 5 -23 5 -51z m-1557 34 c-29 -5 -30 -19 -2 -26 31 -8
22 -51 -11 -54 -25 -3 -25 -3 -2 7 27 12 29 30 2 37 -11 3 -20 14 -20 24 0 14
7 19 28 18 23 -2 24 -2 5 -6z m85 -15 c3 -13 -3 -18 -20 -17 -17 1 -18 3 -5 6
24 6 21 21 -5 26 -20 5 -20 5 2 4 15 -1 26 -9 28 -19z m72 13 c0 -12 -29 -81
-35 -81 -2 0 2 18 10 39 13 38 13 40 -8 44 -18 4 -17 5 6 6 15 0 27 -3 27 -8z
m65 -36 c0 -32 -4 -40 -20 -43 -19 -4 -20 -3 -1 11 18 13 18 14 -3 20 -34 9
-26 61 9 55 10 -2 15 -15 15 -43z m145 -15 c4 -3 2 -11 -6 -18 -8 -7 -14 -8
-14 -2 0 5 -7 10 -15 10 -20 0 -19 15 3 48 l17 26 3 -29 c2 -17 7 -32 12 -35z
m70 0 c4 -3 2 -11 -6 -18 -8 -7 -14 -8 -14 -2 0 5 -7 10 -15 10 -20 0 -19 15
3 48 l17 26 3 -29 c2 -17 7 -32 12 -35z m65 15 c0 -32 -4 -40 -20 -43 -19 -4
-20 -3 -1 11 18 13 18 14 -3 20 -34 9 -26 61 9 55 10 -2 15 -15 15 -43z m73
23 c3 -13 -3 -18 -20 -17 -17 1 -18 3 -5 6 24 6 21 21 -5 26 -20 5 -20 5 2 4
15 -1 26 -9 28 -19z m55 12 c-27 -11 -30 -28 -5 -26 12 1 17 -6 17 -24 0 -38
-39 -35 -43 3 -5 41 4 57 30 56 l23 0 -22 -9z m210 3 c-29 -5 -30 -19 -2 -26
31 -8 22 -51 -11 -54 -25 -3 -25 -3 -2 7 27 12 29 30 2 37 -11 3 -20 14 -20
24 0 14 7 19 28 18 23 -2 24 -2 5 -6z m87 -53 c4 -3 2 -11 -6 -18 -8 -7 -14
-8 -14 -2 0 5 -7 10 -15 10 -20 0 -19 15 3 48 l17 26 3 -29 c2 -17 7 -32 12
-35z m140 0 c4 -3 2 -11 -6 -18 -8 -7 -14 -8 -14 -2 0 5 -7 10 -15 10 -20 0
-19 15 3 48 l17 26 3 -29 c2 -17 7 -32 12 -35z m53 50 c-27 -11 -30 -28 -5
-26 12 1 17 -6 17 -24 0 -38 -39 -35 -43 3 -5 41 4 57 30 56 l23 0 -22 -9z
m87 -50 c4 -3 2 -11 -6 -18 -8 -7 -14 -8 -14 -2 0 5 -7 10 -15 10 -20 0 -19
15 3 48 l17 26 3 -29 c2 -17 7 -32 12 -35z m205 15 c0 -33 -3 -40 -20 -40 -15
0 -21 8 -23 28 -5 39 5 59 25 55 14 -2 18 -13 18 -43z m198 35 c-27 -11 -30
-28 -5 -26 12 1 17 -6 17 -24 0 -38 -39 -35 -43 3 -5 41 4 57 30 56 l23 0 -22
-9z m70 0 c-27 -11 -30 -28 -5 -26 12 1 17 -6 17 -24 0 -38 -39 -35 -43 3 -5
41 4 57 30 56 l23 0 -22 -9z m152 -35 c0 -33 -3 -40 -20 -40 -15 0 -20 7 -22
30 -2 43 4 57 24 53 14 -2 18 -13 18 -43z m70 0 c0 -33 -3 -40 -20 -40 -15 0
-21 8 -23 28 -5 39 5 59 25 55 14 -2 18 -13 18 -43z m70 0 c0 -33 -3 -40 -20
-40 -15 0 -21 8 -23 28 -5 39 5 59 25 55 14 -2 18 -13 18 -43z m70 0 c0 -32
-4 -40 -20 -43 -19 -4 -20 -3 -1 11 18 13 18 14 -3 20 -34 9 -26 61 9 55 10
-2 15 -15 15 -43z m-1747 -13 c3 -30 1 -33 -19 -30 -30 4 -37 28 -10 35 26 7
27 20 4 27 -14 4 -14 4 2 3 15 -2 21 -11 23 -35z m420 16 c2 -11 -5 -18 -20
-20 l-23 -5 25 -11 25 -12 -25 3 c-26 2 -37 25 -26 53 8 20 40 14 44 -8z m560
0 c2 -11 -5 -18 -20 -20 l-23 -5 25 -11 25 -12 -25 3 c-26 2 -37 25 -26 53 8
20 40 14 44 -8z m70 0 c2 -11 -5 -18 -20 -20 l-23 -5 25 -11 25 -12 -25 3
c-26 2 -37 25 -26 53 8 20 40 14 44 -8z m140 0 c2 -11 -5 -18 -20 -20 l-23 -5
25 -11 25 -12 -25 3 c-26 2 -37 25 -26 53 8 20 40 14 44 -8z m280 -16 c3 -30
1 -33 -19 -30 -30 4 -37 28 -10 35 26 7 27 20 4 27 -14 4 -14 4 2 3 15 -2 21
-11 23 -35z m-1681 -17 c-4 -8 -17 -15 -29 -14 l-23 0 23 9 c12 5 22 15 22 21
0 7 3 10 6 6 4 -3 4 -13 1 -22z m490 0 c-4 -8 -17 -15 -29 -14 l-23 0 23 9
c12 5 22 15 22 21 0 7 3 10 6 6 4 -3 4 -13 1 -22z m-497 -75 c-13 -9 -13 -11
0 -20 10 -6 11 -10 3 -10 -8 0 -14 -14 -15 -32 l-1 -33 -4 33 c-2 17 -8 32
-14 32 -5 0 -1 9 8 20 10 11 22 20 28 20 5 0 3 -5 -5 -10z m201 -23 c30 -8 23
-61 -8 -65 -22 -3 -23 0 -22 50 1 29 3 46 6 37 2 -10 13 -19 24 -22z m700 0
c30 -8 23 -61 -8 -65 -22 -3 -23 0 -22 50 1 29 3 46 6 37 2 -10 13 -19 24 -22z
m280 0 c30 -8 23 -61 -8 -65 -22 -3 -23 0 -22 50 1 29 3 46 6 37 2 -10 13 -19
24 -22z m79 23 c-13 -9 -13 -11 0 -20 10 -6 11 -10 3 -10 -8 0 -14 -14 -15
-32 l-1 -33 -4 33 c-2 17 -8 32 -14 32 -5 0 -1 9 8 20 10 11 22 20 28 20 5 0
3 -5 -5 -10z m280 0 c-13 -9 -13 -11 0 -20 10 -6 11 -10 3 -10 -8 0 -14 -14
-15 -32 l-1 -33 -4 33 c-2 17 -8 32 -14 32 -5 0 -1 9 8 20 10 11 22 20 28 20
5 0 3 -5 -5 -10z m-1674 -14 c3 -8 -2 -26 -11 -39 -15 -24 -15 -26 2 -30 12
-3 9 -5 -9 -6 -34 -1 -35 6 -7 35 22 23 17 49 -7 40 -8 -3 -14 -1 -14 4 0 16
40 12 46 -4z m70 0 c3 -8 -2 -26 -11 -39 -15 -24 -15 -26 2 -30 12 -3 9 -5 -9
-6 -34 -1 -35 6 -7 35 22 23 17 49 -7 40 -8 -3 -14 -1 -14 4 0 16 40 12 46 -4z
m140 0 c3 -8 -2 -26 -11 -39 -15 -24 -15 -26 2 -30 12 -3 9 -5 -9 -6 -34 -1
-35 6 -7 35 22 23 17 49 -7 40 -8 -3 -14 -1 -14 4 0 16 40 12 46 -4z m66 -31
c2 -35 0 -45 -12 -45 -11 0 -15 12 -15 45 0 27 5 45 11 45 7 0 14 -20 16 -45z
m148 36 c0 -12 -29 -81 -35 -81 -2 0 2 18 10 39 13 38 13 40 -8 44 -18 4 -17
5 6 6 15 0 27 -3 27 -8z m53 2 c-29 -5 -30 -19 -2 -26 31 -8 22 -51 -11 -54
-25 -3 -25 -3 -2 7 27 12 29 30 2 37 -11 3 -20 14 -20 24 0 14 7 19 28 18 23
-2 24 -2 5 -6z m87 -53 c4 -3 2 -11 -6 -18 -8 -7 -14 -8 -14 -2 0 5 -7 10 -15
10 -20 0 -19 15 3 48 l17 26 3 -29 c2 -17 7 -32 12 -35z m70 0 c4 -3 2 -11 -6
-18 -8 -7 -14 -8 -14 -2 0 5 -7 10 -15 10 -20 0 -19 15 3 48 l17 26 3 -29 c2
-17 7 -32 12 -35z m138 38 c3 -13 -3 -18 -20 -17 -17 1 -18 3 -5 6 24 6 21 21
-5 26 -20 5 -20 5 2 4 15 -1 26 -9 28 -19z m55 12 c-27 -11 -30 -28 -5 -26 12
1 17 -6 17 -24 0 -38 -39 -35 -43 3 -5 41 4 57 30 56 l23 0 -22 -9z m87 1 c0
-12 -29 -81 -35 -81 -2 0 2 18 10 39 13 38 13 40 -8 44 -18 4 -17 5 6 6 15 0
27 -3 27 -8z m65 -36 c0 -32 -4 -40 -20 -43 -19 -4 -20 -3 -1 11 18 13 18 14
-3 20 -34 9 -26 61 9 55 10 -2 15 -15 15 -43z m128 38 c-29 -5 -30 -19 -2 -26
31 -8 22 -51 -11 -54 -25 -3 -25 -3 -2 7 27 12 29 30 2 37 -11 3 -20 14 -20
24 0 14 7 19 28 18 23 -2 24 -2 5 -6z m82 -38 c0 -33 -3 -40 -20 -40 -15 0
-21 8 -23 28 -5 39 5 59 25 55 14 -2 18 -13 18 -43z m71 31 c3 -8 -2 -26 -11
-39 -15 -24 -15 -26 2 -30 12 -3 9 -5 -9 -6 -34 -1 -35 6 -7 35 22 23 17 49
-7 40 -8 -3 -14 -1 -14 4 0 16 40 12 46 -4z m267 4 c-27 -11 -30 -28 -5 -26
12 1 17 -6 17 -24 0 -38 -39 -35 -43 3 -5 41 4 57 30 56 l23 0 -22 -9z m82
-35 c0 -32 -4 -40 -20 -43 -19 -4 -20 -3 -1 11 18 13 18 14 -3 20 -34 9 -26
61 9 55 10 -2 15 -15 15 -43z m210 0 c0 -33 -3 -40 -20 -40 -15 0 -21 8 -23
28 -5 39 5 59 25 55 14 -2 18 -13 18 -43z m70 0 c0 -33 -3 -40 -20 -40 -15 0
-21 8 -23 28 -5 39 5 59 25 55 14 -2 18 -13 18 -43z m58 35 c-27 -11 -30 -28
-5 -26 12 1 17 -6 17 -24 0 -38 -39 -35 -43 3 -5 41 4 57 30 56 l23 0 -22 -9z
m152 -35 c0 -33 -3 -40 -20 -40 -15 0 -20 7 -22 30 -2 43 4 57 24 53 14 -2 18
-13 18 -43z m-1397 3 c2 -11 -5 -18 -20 -20 l-23 -5 25 -11 25 -12 -25 3 c-26
2 -37 25 -26 53 8 20 40 14 44 -8z m755 12 c-13 -5 -23 -16 -23 -25 0 -9 10
-20 23 -25 17 -8 18 -9 3 -7 -28 3 -43 32 -27 51 8 9 21 16 30 15 11 0 9 -3
-6 -9z m280 0 c-13 -5 -23 -16 -23 -25 0 -9 10 -20 23 -25 17 -8 18 -9 3 -7
-28 3 -43 32 -27 51 8 9 21 16 30 15 11 0 9 -3 -6 -9z m295 -12 c2 -11 -5 -18
-20 -20 l-23 -5 25 -11 25 -12 -25 3 c-26 2 -37 25 -26 53 8 20 40 14 44 -8z
m-1261 -33 c-4 -8 -17 -15 -29 -14 l-23 0 23 9 c12 5 22 15 22 21 0 7 3 10 6
6 4 -3 4 -13 1 -22z m-777 -75 c-13 -9 -13 -11 0 -20 10 -6 11 -10 3 -10 -8 0
-14 -14 -15 -32 l-1 -33 -4 33 c-2 17 -8 32 -14 32 -5 0 -1 9 8 20 10 11 22
20 28 20 5 0 3 -5 -5 -10z m210 0 c-13 -9 -13 -11 0 -20 10 -6 11 -10 3 -10
-8 0 -14 -14 -15 -32 l-1 -33 -4 33 c-2 17 -8 32 -14 32 -5 0 -1 9 8 20 10 11
22 20 28 20 5 0 3 -5 -5 -10z m220 -41 c0 -47 -2 -50 -22 -47 -32 4 -39 57 -9
65 12 3 21 12 21 19 0 8 2 14 5 14 3 0 5 -23 5 -51z m60 41 c-13 -9 -13 -11 0
-20 10 -6 11 -10 3 -10 -8 0 -14 -14 -15 -32 l-1 -33 -4 33 c-2 17 -8 32 -14
32 -5 0 -1 9 8 20 10 11 22 20 28 20 5 0 3 -5 -5 -10z m640 -41 c0 -47 -2 -50
-22 -47 -32 4 -39 57 -9 65 12 3 21 12 21 19 0 8 2 14 5 14 3 0 5 -23 5 -51z
m630 0 c0 -47 -2 -50 -22 -47 -32 4 -39 57 -9 65 12 3 21 12 21 19 0 8 2 14 5
14 3 0 5 -23 5 -51z m60 41 c-13 -9 -13 -11 0 -20 10 -6 11 -10 3 -10 -8 0
-14 -14 -15 -32 l-1 -33 -4 33 c-2 17 -8 32 -14 32 -5 0 -1 9 8 20 10 11 22
20 28 20 5 0 3 -5 -5 -10z m-1675 -45 c0 -33 -3 -40 -20 -40 -15 0 -20 7 -22
30 -2 43 4 57 24 53 14 -2 18 -13 18 -43z m408 35 c-27 -11 -30 -28 -5 -26 12
1 17 -6 17 -24 0 -38 -39 -35 -43 3 -5 41 4 57 30 56 l23 0 -22 -9z m152 -35
c0 -33 -3 -40 -20 -40 -15 0 -21 8 -23 28 -5 39 5 59 25 55 14 -2 18 -13 18
-43z m70 0 c0 -32 -4 -40 -20 -43 -19 -4 -20 -3 -1 11 18 13 18 14 -3 20 -34
9 -26 61 9 55 10 -2 15 -15 15 -43z m140 0 c0 -33 -3 -40 -20 -40 -15 0 -20 7
-22 30 -2 43 4 57 24 53 14 -2 18 -13 18 -43z m70 0 c0 -33 -3 -40 -20 -40
-15 0 -21 8 -23 28 -5 39 5 59 25 55 14 -2 18 -13 18 -43z m58 38 c-29 -5 -30
-19 -2 -26 31 -8 22 -51 -11 -54 -25 -3 -25 -3 -2 7 27 12 29 30 2 37 -11 3
-20 14 -20 24 0 14 7 19 28 18 23 -2 24 -2 5 -6z m157 -53 c4 -3 2 -11 -6 -18
-8 -7 -14 -8 -14 -2 0 5 -7 10 -15 10 -20 0 -19 15 3 48 l17 26 3 -29 c2 -17
7 -32 12 -35z m70 0 c4 -3 2 -11 -6 -18 -8 -7 -14 -8 -14 -2 0 5 -7 10 -15 10
-20 0 -19 15 3 48 l17 26 3 -29 c2 -17 7 -32 12 -35z m70 0 c4 -3 2 -11 -6
-18 -8 -7 -14 -8 -14 -2 0 5 -7 10 -15 10 -20 0 -19 15 3 48 l17 26 3 -29 c2
-17 7 -32 12 -35z m66 46 c3 -8 -2 -26 -11 -39 -15 -24 -15 -26 2 -30 12 -3 9
-5 -9 -6 -34 -1 -35 6 -7 35 22 23 17 49 -7 40 -8 -3 -14 -1 -14 4 0 16 40 12
46 -4z m74 -46 c4 -3 2 -11 -6 -18 -8 -7 -14 -8 -14 -2 0 5 -7 10 -15 10 -20
0 -19 15 3 48 l17 26 3 -29 c2 -17 7 -32 12 -35z m70 0 c4 -3 2 -11 -6 -18 -8
-7 -14 -8 -14 -2 0 5 -7 10 -15 10 -20 0 -19 15 3 48 l17 26 3 -29 c2 -17 7
-32 12 -35z m53 50 c-27 -11 -30 -28 -5 -26 12 1 17 -6 17 -24 0 -38 -39 -35
-43 3 -5 41 4 57 30 56 l23 0 -22 -9z m87 1 c0 -12 -29 -81 -35 -81 -2 0 2 18
10 39 13 38 13 40 -8 44 -18 4 -17 5 6 6 15 0 27 -3 27 -8z m-1612 -33 c2 -11
-5 -18 -20 -20 l-23 -5 25 -11 25 -12 -25 3 c-26 2 -37 25 -26 53 8 20 40 14
44 -8z m210 -16 c3 -30 1 -33 -19 -30 -30 4 -37 28 -10 35 26 7 27 20 4 27
-14 4 -14 4 2 3 15 -2 21 -11 23 -35z m70 16 c2 -11 -5 -18 -20 -20 l-23 -5
25 -11 25 -12 -25 3 c-26 2 -37 25 -26 53 8 20 40 14 44 -8z m280 -16 c3 -30
1 -33 -19 -30 -30 4 -37 28 -10 35 26 7 27 20 4 27 -14 4 -14 4 2 3 15 -2 21
-11 23 -35z m210 16 c2 -11 -5 -18 -20 -20 l-23 -5 25 -11 25 -12 -25 3 c-26
2 -37 25 -26 53 8 20 40 14 44 -8z m1050 0 c2 -11 -5 -18 -20 -20 l-23 -5 25
-11 25 -12 -25 3 c-26 2 -37 25 -26 53 8 20 40 14 44 -8z m70 -16 c3 -30 1
-33 -19 -30 -30 4 -37 28 -10 35 26 7 27 20 4 27 -14 4 -14 4 2 3 15 -2 21
-11 23 -35z m70 0 c3 -30 1 -33 -19 -30 -30 4 -37 28 -10 35 26 7 27 20 4 27
-14 4 -14 4 2 3 15 -2 21 -11 23 -35z m55 28 c-13 -5 -23 -16 -23 -25 0 -9 10
-20 23 -25 17 -8 18 -9 3 -7 -28 3 -43 32 -27 51 8 9 21 16 30 15 11 0 9 -3
-6 -9z m85 -28 c3 -30 1 -33 -19 -30 -30 4 -37 28 -10 35 26 7 27 20 4 27 -14
4 -14 4 2 3 15 -2 21 -11 23 -35z m-2187 -115 c30 -8 23 -61 -8 -65 -22 -3
-23 0 -22 50 1 29 3 46 6 37 2 -10 13 -19 24 -22z m779 23 c-13 -9 -13 -11 0
-20 10 -6 11 -10 3 -10 -8 0 -14 -14 -15 -32 l-1 -33 -4 33 c-2 17 -8 32 -14
32 -5 0 -1 9 8 20 10 11 22 20 28 20 5 0 3 -5 -5 -10z m490 0 c-13 -9 -13 -11
0 -20 10 -6 11 -10 3 -10 -8 0 -14 -14 -15 -32 l-1 -33 -4 33 c-2 17 -8 32
-14 32 -5 0 -1 9 8 20 10 11 22 20 28 20 5 0 3 -5 -5 -10z m140 0 c-13 -9 -13
-11 0 -20 10 -6 11 -10 3 -10 -8 0 -14 -14 -15 -32 l-1 -33 -4 33 c-2 17 -8
32 -14 32 -5 0 -1 9 8 20 10 11 22 20 28 20 5 0 3 -5 -5 -10z m551 -23 c30 -8
23 -61 -8 -65 -22 -3 -23 0 -22 50 1 29 3 46 6 37 2 -10 13 -19 24 -22z m149
23 c-13 -9 -13 -11 0 -20 10 -6 11 -10 3 -10 -8 0 -14 -14 -15 -32 l-1 -33 -4
33 c-2 17 -8 32 -14 32 -5 0 -1 9 8 20 10 11 22 20 28 20 5 0 3 -5 -5 -10z
m70 0 c-13 -9 -13 -11 0 -20 10 -6 11 -10 3 -10 -8 0 -14 -14 -15 -32 l-1 -33
-4 33 c-2 17 -8 32 -14 32 -5 0 -1 9 8 20 10 11 22 20 28 20 5 0 3 -5 -5 -10z
m-2090 -60 c4 -3 2 -11 -6 -18 -8 -7 -14 -8 -14 -2 0 5 -7 10 -15 10 -20 0
-19 15 3 48 l17 26 3 -29 c2 -17 7 -32 12 -35z m66 46 c3 -8 -2 -26 -11 -39
-15 -24 -15 -26 2 -30 12 -3 9 -5 -9 -6 -34 -1 -35 6 -7 35 22 23 17 49 -7 40
-8 -3 -14 -1 -14 4 0 16 40 12 46 -4z m69 -31 c0 -33 -3 -40 -20 -40 -15 0
-21 8 -23 28 -5 39 5 59 25 55 14 -2 18 -13 18 -43z m75 -15 c4 -3 2 -11 -6
-18 -8 -7 -14 -8 -14 -2 0 5 -7 10 -15 10 -20 0 -19 15 3 48 l17 26 3 -29 c2
-17 7 -32 12 -35z m62 15 c2 -35 0 -45 -12 -45 -11 0 -15 12 -15 45 0 27 5 45
11 45 7 0 14 -20 16 -45z m73 0 c0 -32 -4 -40 -20 -43 -19 -4 -20 -3 -1 11 18
13 18 14 -3 20 -34 9 -26 61 9 55 10 -2 15 -15 15 -43z m128 35 c-27 -11 -30
-28 -5 -26 12 1 17 -6 17 -24 0 -38 -39 -35 -43 3 -5 41 4 57 30 56 l23 0 -22
-9z m152 -35 c0 -32 -4 -40 -20 -43 -19 -4 -20 -3 -1 11 18 13 18 14 -3 20
-34 9 -26 61 9 55 10 -2 15 -15 15 -43z m141 31 c3 -8 -2 -26 -11 -39 -15 -24
-15 -26 2 -30 12 -3 9 -5 -9 -6 -34 -1 -35 6 -7 35 22 23 17 49 -7 40 -8 -3
-14 -1 -14 4 0 16 40 12 46 -4z m139 -31 c0 -33 -3 -40 -20 -40 -15 0 -21 8
-23 28 -5 39 5 59 25 55 14 -2 18 -13 18 -43z m145 -15 c4 -3 2 -11 -6 -18 -8
-7 -14 -8 -14 -2 0 5 -7 10 -15 10 -20 0 -19 15 3 48 l17 26 3 -29 c2 -17 7
-32 12 -35z m68 38 c3 -13 -3 -18 -20 -17 -17 1 -18 3 -5 6 24 6 21 21 -5 26
-20 5 -20 5 2 4 15 -1 26 -9 28 -19z m137 -23 c0 -32 -4 -40 -20 -43 -19 -4
-20 -3 -1 11 18 13 18 14 -3 20 -34 9 -26 61 9 55 10 -2 15 -15 15 -43z m141
31 c3 -8 -2 -26 -11 -39 -15 -24 -15 -26 2 -30 12 -3 9 -5 -9 -6 -34 -1 -35 6
-7 35 22 23 17 49 -7 40 -8 -3 -14 -1 -14 4 0 16 40 12 46 -4z m74 5 c0 -12
-29 -81 -35 -81 -2 0 2 18 10 39 13 38 13 40 -8 44 -18 4 -17 5 6 6 15 0 27
-3 27 -8z m135 -36 c0 -33 -3 -40 -20 -40 -15 0 -20 7 -22 30 -2 43 4 57 24
53 14 -2 18 -13 18 -43z m145 36 c0 -12 -29 -81 -35 -81 -2 0 2 18 10 39 13
38 13 40 -8 44 -18 4 -17 5 6 6 15 0 27 -3 27 -8z m53 2 c-29 -5 -30 -19 -2
-26 31 -8 22 -51 -11 -54 -25 -3 -25 -3 -2 7 27 12 29 30 2 37 -11 3 -20 14
-20 24 0 14 7 19 28 18 23 -2 24 -2 5 -6z m140 0 c-29 -5 -30 -19 -2 -26 31
-8 22 -51 -11 -54 -25 -3 -25 -3 -2 7 27 12 29 30 2 37 -11 3 -20 14 -20 24 0
14 7 19 28 18 23 -2 24 -2 5 -6z m219 -38 c2 -35 0 -45 -12 -45 -11 0 -15 12
-15 45 0 27 5 45 11 45 7 0 14 -20 16 -45z m-1744 -13 c3 -30 1 -33 -19 -30
-30 4 -37 28 -10 35 26 7 27 20 4 27 -14 4 -14 4 2 3 15 -2 21 -11 23 -35z
m125 28 c-13 -5 -23 -16 -23 -25 0 -9 10 -20 23 -25 17 -8 18 -9 3 -7 -28 3
-43 32 -27 51 8 9 21 16 30 15 11 0 9 -3 -6 -9z m280 0 c-13 -5 -23 -16 -23
-25 0 -9 10 -20 23 -25 17 -8 18 -9 3 -7 -28 3 -43 32 -27 51 8 9 21 16 30 15
11 0 9 -3 -6 -9z m140 0 c-13 -5 -23 -16 -23 -25 0 -9 10 -20 23 -25 17 -8 18
-9 3 -7 -28 3 -43 32 -27 51 8 9 21 16 30 15 11 0 9 -3 -6 -9z m560 0 c-13 -5
-23 -16 -23 -25 0 -9 10 -20 23 -25 17 -8 18 -9 3 -7 -28 3 -43 32 -27 51 8 9
21 16 30 15 11 0 9 -3 -6 -9z m155 -28 c3 -30 1 -33 -19 -30 -30 4 -37 28 -10
35 26 7 27 20 4 27 -14 4 -14 4 2 3 15 -2 21 -11 23 -35z m-561 -17 c-4 -8
-17 -15 -29 -14 l-23 0 23 9 c12 5 22 15 22 21 0 7 3 10 6 6 4 -3 4 -13 1 -22z"/>
<path d="M2867 3324 c-8 -8 1 -24 14 -24 5 0 9 7 9 15 0 15 -12 20 -23 9z"/>
<path d="M2860 3275 c0 -8 7 -15 15 -15 8 0 15 7 15 15 0 8 -7 15 -15 15 -8 0
-15 -7 -15 -15z"/>
<path d="M3000 3310 c0 -11 7 -20 15 -20 8 0 15 9 15 20 0 11 -7 20 -15 20 -8
0 -15 -9 -15 -20z"/>
<path d="M3070 3310 c0 -11 7 -20 15 -20 8 0 15 9 15 20 0 11 -7 20 -15 20 -8
0 -15 -9 -15 -20z"/>
<path d="M2860 3136 c0 -17 5 -26 16 -26 10 0 14 7 12 22 -5 32 -28 35 -28 4z"/>
<path d="M2300 3160 c0 -11 7 -20 15 -20 8 0 15 9 15 20 0 11 -7 20 -15 20 -8
0 -15 -9 -15 -20z"/>
<path d="M2374 3166 c-8 -21 -1 -49 14 -54 8 -2 12 8 12 32 0 36 -16 49 -26
22z"/>
<path d="M2510 3160 c0 -11 7 -20 15 -20 8 0 15 9 15 20 0 11 -7 20 -15 20 -8
0 -15 -9 -15 -20z"/>
<path d="M2580 3160 c0 -11 7 -20 15 -20 8 0 15 9 15 20 0 11 -7 20 -15 20 -8
0 -15 -9 -15 -20z"/>
<path d="M2440 3120 c0 -5 7 -10 15 -10 8 0 15 5 15 10 0 6 -7 10 -15 10 -8 0
-15 -4 -15 -10z"/>
<path d="M2795 3150 c-3 -5 1 -10 9 -10 9 0 16 5 16 10 0 6 -4 10 -9 10 -6 0
-13 -4 -16 -10z"/>
<path d="M2930 3120 c0 -5 7 -10 15 -10 8 0 15 5 15 10 0 6 -7 10 -15 10 -8 0
-15 -4 -15 -10z"/>
<path d="M3070 3120 c0 -5 7 -10 15 -10 8 0 15 5 15 10 0 6 -7 10 -15 10 -8 0
-15 -4 -15 -10z"/>
<path d="M3140 3120 c0 -5 7 -10 15 -10 8 0 15 5 15 10 0 6 -7 10 -15 10 -8 0
-15 -4 -15 -10z"/>
<path d="M2024 2995 c-3 -8 -3 -19 1 -25 11 -18 25 -11 25 15 0 27 -17 34 -26
10z"/>
<path d="M2090 2986 c0 -17 5 -26 16 -26 10 0 14 7 12 22 -5 32 -28 35 -28 4z"/>
<path d="M2440 2986 c0 -17 5 -26 16 -26 10 0 14 7 12 22 -5 32 -28 35 -28 4z"/>
<path d="M2934 2995 c-3 -8 -3 -19 1 -25 11 -18 25 -11 25 15 0 27 -17 34 -26
10z"/>
<path d="M3000 2986 c0 -17 5 -26 16 -26 10 0 14 7 12 22 -5 32 -28 35 -28 4z"/>
<path d="M3070 2986 c0 -17 5 -26 16 -26 10 0 14 7 12 22 -5 32 -28 35 -28 4z"/>
<path d="M2517 3024 c-8 -8 1 -24 14 -24 5 0 9 7 9 15 0 15 -12 20 -23 9z"/>
<path d="M2510 2975 c0 -8 7 -15 15 -15 8 0 15 7 15 15 0 8 -7 15 -15 15 -8 0
-15 -7 -15 -15z"/>
<path d="M2585 2990 c-7 -12 2 -30 16 -30 5 0 9 9 9 20 0 21 -15 27 -25 10z"/>
<path d="M2866 3001 c-4 -7 -5 -15 -2 -18 9 -9 19 4 14 18 -4 11 -6 11 -12 0z"/>
<path d="M2020 2836 c0 -17 5 -26 16 -26 10 0 14 7 12 22 -5 32 -28 35 -28 4z"/>
<path d="M1814 2866 c-8 -21 -1 -49 14 -54 8 -2 12 8 12 32 0 36 -16 49 -26
22z"/>
<path d="M2304 2866 c-8 -21 -1 -49 14 -54 8 -2 12 8 12 32 0 36 -16 49 -26
22z"/>
<path d="M2445 2840 c-7 -12 2 -30 16 -30 5 0 9 9 9 20 0 21 -15 27 -25 10z"/>
<path d="M2584 2866 c-8 -21 -1 -49 14 -54 8 -2 12 8 12 32 0 36 -16 49 -26
22z"/>
<path d="M2794 2866 c-8 -21 -1 -49 14 -54 8 -2 12 8 12 32 0 36 -16 49 -26
22z"/>
<path d="M3007 2874 c-8 -8 1 -24 14 -24 5 0 9 7 9 15 0 15 -12 20 -23 9z"/>
<path d="M3000 2825 c0 -8 7 -15 15 -15 8 0 15 7 15 15 0 8 -7 15 -15 15 -8 0
-15 -7 -15 -15z"/>
<path d="M1950 2820 c0 -5 7 -10 15 -10 8 0 15 5 15 10 0 6 -7 10 -15 10 -8 0
-15 -4 -15 -10z"/>
<path d="M2655 2850 c-3 -5 1 -10 9 -10 9 0 16 5 16 10 0 6 -4 10 -9 10 -6 0
-13 -4 -16 -10z"/>
<path d="M1674 2695 c-3 -8 -3 -19 1 -25 11 -18 25 -11 25 15 0 27 -17 34 -26
10z"/>
<path d="M1810 2686 c0 -17 5 -26 16 -26 10 0 14 7 12 22 -5 32 -28 35 -28 4z"/>
<path d="M1884 2695 c-3 -8 -3 -19 1 -25 11 -18 25 -11 25 15 0 27 -17 34 -26
10z"/>
<path d="M2094 2695 c-3 -8 -3 -19 1 -25 11 -18 25 -11 25 15 0 27 -17 34 -26
10z"/>
<path d="M2234 2695 c-3 -8 -3 -19 1 -25 11 -18 25 -11 25 15 0 27 -17 34 -26
10z"/>
<path d="M2650 2686 c0 -17 5 -26 16 -26 10 0 14 7 12 22 -5 32 -28 35 -28 4z"/>
<path d="M2860 2686 c0 -17 5 -26 16 -26 10 0 14 7 12 22 -5 32 -28 35 -28 4z"/>
<path d="M1955 2690 c-7 -12 2 -30 16 -30 5 0 9 9 9 20 0 21 -15 27 -25 10z"/>
<path d="M2025 2690 c-7 -12 2 -30 16 -30 5 0 9 9 9 20 0 21 -15 27 -25 10z"/>
<path d="M2370 2710 c0 -11 7 -20 15 -20 8 0 15 9 15 20 0 11 -7 20 -15 20 -8
0 -15 -9 -15 -20z"/>
<path d="M2445 2690 c-7 -12 2 -30 16 -30 5 0 9 9 9 20 0 21 -15 27 -25 10z"/>
<path d="M2516 2701 c-4 -7 -5 -15 -2 -18 9 -9 19 4 14 18 -4 11 -6 11 -12 0z"/>
<path d="M2726 2701 c-4 -7 -5 -15 -2 -18 9 -9 19 4 14 18 -4 11 -6 11 -12 0z"/>
<path d="M2790 2670 c0 -5 7 -10 15 -10 8 0 15 5 15 10 0 6 -7 10 -15 10 -8 0
-15 -4 -15 -10z"/>
<path d="M1530 2536 c0 -17 5 -26 16 -26 10 0 14 7 12 22 -5 32 -28 35 -28 4z"/>
<path d="M1954 2545 c-3 -8 -3 -19 1 -25 11 -18 25 -11 25 15 0 27 -17 34 -26
10z"/>
<path d="M1744 2566 c-8 -21 -1 -49 14 -54 8 -2 12 8 12 32 0 36 -16 49 -26
22z"/>
<path d="M1817 2574 c-8 -8 1 -24 14 -24 5 0 9 7 9 15 0 15 -12 20 -23 9z"/>
<path d="M1810 2525 c0 -8 7 -15 15 -15 8 0 15 7 15 15 0 8 -7 15 -15 15 -8 0
-15 -7 -15 -15z"/>
<path d="M2094 2566 c-8 -21 -1 -49 14 -54 8 -2 12 8 12 32 0 36 -16 49 -26
22z"/>
<path d="M2307 2574 c-8 -8 1 -24 14 -24 5 0 9 7 9 15 0 15 -12 20 -23 9z"/>
<path d="M2300 2525 c0 -8 7 -15 15 -15 8 0 15 7 15 15 0 8 -7 15 -15 15 -8 0
-15 -7 -15 -15z"/>
<path d="M2584 2566 c-8 -21 -1 -49 14 -54 8 -2 12 8 12 32 0 36 -16 49 -26
22z"/>
<path d="M2725 2540 c-7 -12 2 -30 16 -30 5 0 9 9 9 20 0 21 -15 27 -25 10z"/>
<path d="M2795 2540 c-7 -12 2 -30 16 -30 5 0 9 9 9 20 0 21 -15 27 -25 10z"/>
<path d="M2165 2550 c-3 -5 1 -10 9 -10 9 0 16 5 16 10 0 6 -4 10 -9 10 -6 0
-13 -4 -16 -10z"/>
<path d="M2445 2550 c-3 -5 1 -10 9 -10 9 0 16 5 16 10 0 6 -4 10 -9 10 -6 0
-13 -4 -16 -10z"/>
<path d="M1880 2386 c0 -17 5 -26 16 -26 10 0 14 7 12 22 -5 32 -28 35 -28 4z"/>
<path d="M1954 2395 c-3 -8 -3 -19 1 -25 11 -18 25 -11 25 15 0 27 -17 34 -26
10z"/>
<path d="M2444 2395 c-3 -8 -3 -19 1 -25 11 -18 25 -11 25 15 0 27 -17 34 -26
10z"/>
<path d="M2580 2386 c0 -17 5 -26 16 -26 10 0 14 7 12 22 -5 32 -28 35 -28 4z"/>
<path d="M2160 2410 c0 -11 7 -20 15 -20 8 0 15 9 15 20 0 11 -7 20 -15 20 -8
0 -15 -9 -15 -20z"/>
<path d="M2307 2424 c-8 -8 1 -24 14 -24 5 0 9 7 9 15 0 15 -12 20 -23 9z"/>
<path d="M2300 2375 c0 -8 7 -15 15 -15 8 0 15 7 15 15 0 8 -7 15 -15 15 -8 0
-15 -7 -15 -15z"/>
<path d="M2517 2424 c-8 -8 1 -24 14 -24 5 0 9 7 9 15 0 15 -12 20 -23 9z"/>
<path d="M2510 2375 c0 -8 7 -15 15 -15 8 0 15 7 15 15 0 8 -7 15 -15 15 -8 0
-15 -7 -15 -15z"/>
<path d="M1740 2370 c0 -5 7 -10 15 -10 8 0 15 5 15 10 0 6 -7 10 -15 10 -8 0
-15 -4 -15 -10z"/>
<path d="M2370 2370 c0 -5 7 -10 15 -10 8 0 15 5 15 10 0 6 -7 10 -15 10 -8 0
-15 -4 -15 -10z"/>
<path d="M1464 2245 c-3 -8 -3 -19 1 -25 11 -18 25 -11 25 15 0 27 -17 34 -26
10z"/>
<path d="M1534 2245 c-3 -8 -3 -19 1 -25 11 -18 25 -11 25 15 0 27 -17 34 -26
10z"/>
<path d="M1810 2236 c0 -17 5 -26 16 -26 10 0 14 7 12 22 -5 32 -28 35 -28 4z"/>
<path d="M2370 2236 c0 -17 5 -26 16 -26 10 0 14 7 12 22 -5 32 -28 35 -28 4z"/>
<path d="M1394 2266 c-8 -21 -1 -49 14 -54 8 -2 12 8 12 32 0 36 -16 49 -26
22z"/>
<path d="M1606 2251 c-4 -7 -5 -15 -2 -18 9 -9 19 4 14 18 -4 11 -6 11 -12 0z"/>
<path d="M1950 2260 c0 -11 7 -20 15 -20 8 0 15 9 15 20 0 11 -7 20 -15 20 -8
0 -15 -9 -15 -20z"/>
<path d="M2024 2266 c-8 -21 -1 -49 14 -54 8 -2 12 8 12 32 0 36 -16 49 -26
22z"/>
<path d="M2230 2260 c0 -11 7 -20 15 -20 8 0 15 9 15 20 0 11 -7 20 -15 20 -8
0 -15 -9 -15 -20z"/>
<path d="M2447 2274 c-8 -8 1 -24 14 -24 5 0 9 7 9 15 0 15 -12 20 -23 9z"/>
<path d="M2440 2225 c0 -8 7 -15 15 -15 8 0 15 7 15 15 0 8 -7 15 -15 15 -8 0
-15 -7 -15 -15z"/>
<path d="M2654 2266 c-8 -21 -1 -49 14 -54 8 -2 12 8 12 32 0 36 -16 49 -26
22z"/>
<path d="M2865 2240 c-7 -12 2 -30 16 -30 5 0 9 9 9 20 0 21 -15 27 -25 10z"/>
<path d="M1320 2220 c0 -5 7 -10 15 -10 8 0 15 5 15 10 0 6 -7 10 -15 10 -8 0
-15 -4 -15 -10z"/>
<path d="M1740 2220 c0 -5 7 -10 15 -10 8 0 15 5 15 10 0 6 -7 10 -15 10 -8 0
-15 -4 -15 -10z"/>
<path d="M1880 2220 c0 -5 7 -10 15 -10 8 0 15 5 15 10 0 6 -7 10 -15 10 -8 0
-15 -4 -15 -10z"/>
<path d="M2305 2250 c-3 -5 1 -10 9 -10 9 0 16 5 16 10 0 6 -4 10 -9 10 -6 0
-13 -4 -16 -10z"/>
<path d="M2515 2250 c-3 -5 1 -10 9 -10 9 0 16 5 16 10 0 6 -4 10 -9 10 -6 0
-13 -4 -16 -10z"/>
<path d="M1460 2086 c0 -17 5 -26 16 -26 10 0 14 7 12 22 -5 32 -28 35 -28 4z"/>
<path d="M1530 2086 c0 -17 5 -26 16 -26 10 0 14 7 12 22 -5 32 -28 35 -28 4z"/>
<path d="M2020 2086 c0 -17 5 -26 16 -26 10 0 14 7 12 22 -5 32 -28 35 -28 4z"/>
<path d="M2584 2095 c-3 -8 -3 -19 1 -25 11 -18 25 -11 25 15 0 27 -17 34 -26
10z"/>
<path d="M1256 2101 c-4 -7 -5 -15 -2 -18 9 -9 19 4 14 18 -4 11 -6 11 -12 0z"/>
<path d="M1324 2116 c-8 -21 -1 -49 14 -54 8 -2 12 8 12 32 0 36 -16 49 -26
22z"/>
<path d="M1606 2101 c-4 -7 -5 -15 -2 -18 9 -9 19 4 14 18 -4 11 -6 11 -12 0z"/>
<path d="M1677 2124 c-8 -8 1 -24 14 -24 5 0 9 7 9 15 0 15 -12 20 -23 9z"/>
<path d="M1670 2075 c0 -8 7 -15 15 -15 8 0 15 7 15 15 0 8 -7 15 -15 15 -8 0
-15 -7 -15 -15z"/>
<path d="M1740 2110 c0 -11 7 -20 15 -20 8 0 15 9 15 20 0 11 -7 20 -15 20 -8
0 -15 -9 -15 -20z"/>
<path d="M2094 2116 c-8 -21 -1 -49 14 -54 8 -2 12 8 12 32 0 36 -16 49 -26
22z"/>
<path d="M2300 2110 c0 -11 7 -20 15 -20 8 0 15 9 15 20 0 11 -7 20 -15 20 -8
0 -15 -9 -15 -20z"/>
<path d="M2724 2116 c-8 -21 -1 -49 14 -54 8 -2 12 8 12 32 0 36 -16 49 -26
22z"/>
<path d="M2866 2101 c-4 -7 -5 -15 -2 -18 9 -9 19 4 14 18 -4 11 -6 11 -12 0z"/>
<path d="M1395 2100 c-3 -5 1 -10 9 -10 9 0 16 5 16 10 0 6 -4 10 -9 10 -6 0
-13 -4 -16 -10z"/>
<path d="M2370 2070 c0 -5 7 -10 15 -10 8 0 15 5 15 10 0 6 -7 10 -15 10 -8 0
-15 -4 -15 -10z"/>
<path d="M2510 2070 c0 -5 7 -10 15 -10 8 0 15 5 15 10 0 6 -7 10 -15 10 -8 0
-15 -4 -15 -10z"/>
<path d="M1884 1945 c-3 -8 -3 -19 1 -25 11 -18 25 -11 25 15 0 27 -17 34 -26
10z"/>
<path d="M2020 1936 c0 -17 5 -26 16 -26 10 0 14 7 12 22 -5 32 -28 35 -28 4z"/>
<path d="M1184 1966 c-8 -21 -1 -49 14 -54 8 -2 12 8 12 32 0 36 -16 49 -26
22z"/>
<path d="M1325 1940 c-7 -12 2 -30 16 -30 5 0 9 9 9 20 0 21 -15 27 -25 10z"/>
<path d="M1466 1951 c-4 -7 -5 -15 -2 -18 9 -9 19 4 14 18 -4 11 -6 11 -12 0z"/>
<path d="M1670 1960 c0 -11 7 -20 15 -20 8 0 15 9 15 20 0 11 -7 20 -15 20 -8
0 -15 -9 -15 -20z"/>
<path d="M1954 1966 c-8 -21 -1 -49 14 -54 8 -2 12 8 12 32 0 36 -16 49 -26
22z"/>
<path d="M2160 1960 c0 -11 7 -20 15 -20 8 0 15 9 15 20 0 11 -7 20 -15 20 -8
0 -15 -9 -15 -20z"/>
<path d="M2306 1951 c-4 -7 -5 -15 -2 -18 9 -9 19 4 14 18 -4 11 -6 11 -12 0z"/>
<path d="M2375 1940 c-7 -12 2 -30 16 -30 5 0 9 9 9 20 0 21 -15 27 -25 10z"/>
<path d="M2445 1940 c-7 -12 2 -30 16 -30 5 0 9 9 9 20 0 21 -15 27 -25 10z"/>
<path d="M2650 1960 c0 -11 7 -20 15 -20 8 0 15 9 15 20 0 11 -7 20 -15 20 -8
0 -15 -9 -15 -20z"/>
<path d="M2860 1960 c0 -11 7 -20 15 -20 8 0 15 9 15 20 0 11 -7 20 -15 20 -8
0 -15 -9 -15 -20z"/>
<path d="M1390 1920 c0 -5 7 -10 15 -10 8 0 15 5 15 10 0 6 -7 10 -15 10 -8 0
-15 -4 -15 -10z"/>
<path d="M2790 1920 c0 -5 7 -10 15 -10 8 0 15 5 15 10 0 6 -7 10 -15 10 -8 0
-15 -4 -15 -10z"/>
<path d="M1320 1786 c0 -17 5 -26 16 -26 10 0 14 7 12 22 -5 32 -28 35 -28 4z"/>
<path d="M1600 1786 c0 -17 5 -26 16 -26 10 0 14 7 12 22 -5 32 -28 35 -28 4z"/>
<path d="M2370 1786 c0 -17 5 -26 16 -26 10 0 14 7 12 22 -5 32 -28 35 -28 4z"/>
<path d="M1114 1816 c-8 -21 -1 -49 14 -54 8 -2 12 8 12 32 0 36 -16 49 -26
22z"/>
<path d="M1390 1810 c0 -11 7 -20 15 -20 8 0 15 9 15 20 0 11 -7 20 -15 20 -8
0 -15 -9 -15 -20z"/>
<path d="M1670 1810 c0 -11 7 -20 15 -20 8 0 15 9 15 20 0 11 -7 20 -15 20 -8
0 -15 -9 -15 -20z"/>
<path d="M1746 1801 c-4 -7 -5 -15 -2 -18 9 -9 19 4 14 18 -4 11 -6 11 -12 0z"/>
<path d="M2020 1810 c0 -11 7 -20 15 -20 8 0 15 9 15 20 0 11 -7 20 -15 20 -8
0 -15 -9 -15 -20z"/>
<path d="M2516 1801 c-4 -7 -5 -15 -2 -18 9 -9 19 4 14 18 -4 11 -6 11 -12 0z"/>
<path d="M1460 1770 c0 -5 7 -10 15 -10 8 0 15 5 15 10 0 6 -7 10 -15 10 -8 0
-15 -4 -15 -10z"/>
<path d="M1810 1770 c0 -5 7 -10 15 -10 8 0 15 5 15 10 0 6 -7 10 -15 10 -8 0
-15 -4 -15 -10z"/>
<path d="M2655 1800 c-3 -5 1 -10 9 -10 9 0 16 5 16 10 0 6 -4 10 -9 10 -6 0
-13 -4 -16 -10z"/>
<path d="M2865 1800 c-3 -5 1 -10 9 -10 9 0 16 5 16 10 0 6 -4 10 -9 10 -6 0
-13 -4 -16 -10z"/>
<path d="M1390 1636 c0 -17 5 -26 16 -26 10 0 14 7 12 22 -5 32 -28 35 -28 4z"/>
<path d="M2020 1636 c0 -17 5 -26 16 -26 10 0 14 7 12 22 -5 32 -28 35 -28 4z"/>
<path d="M2094 1645 c-3 -8 -3 -19 1 -25 11 -18 25 -11 25 15 0 27 -17 34 -26
10z"/>
<path d="M2724 1645 c-3 -8 -3 -19 1 -25 11 -18 25 -11 25 15 0 27 -17 34 -26
10z"/>
<path d="M2864 1645 c-3 -8 -3 -19 1 -25 11 -18 25 -11 25 15 0 27 -17 34 -26
10z"/>
<path d="M1045 1640 c-7 -12 2 -30 16 -30 5 0 9 9 9 20 0 21 -15 27 -25 10z"/>
<path d="M1184 1666 c-8 -21 -1 -49 14 -54 8 -2 12 8 12 32 0 36 -16 49 -26
22z"/>
<path d="M1255 1640 c-7 -12 2 -30 16 -30 5 0 9 9 9 20 0 21 -15 27 -25 10z"/>
<path d="M1320 1660 c0 -11 7 -20 15 -20 8 0 15 9 15 20 0 11 -7 20 -15 20 -8
0 -15 -9 -15 -20z"/>
<path d="M1675 1640 c-7 -12 2 -30 16 -30 5 0 9 9 9 20 0 21 -15 27 -25 10z"/>
<path d="M2307 1674 c-8 -8 1 -24 14 -24 5 0 9 7 9 15 0 15 -12 20 -23 9z"/>
<path d="M2300 1625 c0 -8 7 -15 15 -15 8 0 15 7 15 15 0 8 -7 15 -15 15 -8 0
-15 -7 -15 -15z"/>
<path d="M2370 1660 c0 -11 7 -20 15 -20 8 0 15 9 15 20 0 11 -7 20 -15 20 -8
0 -15 -9 -15 -20z"/>
<path d="M2515 1640 c-7 -12 2 -30 16 -30 5 0 9 9 9 20 0 21 -15 27 -25 10z"/>
<path d="M1880 1620 c0 -5 7 -10 15 -10 8 0 15 5 15 10 0 6 -7 10 -15 10 -8 0
-15 -4 -15 -10z"/>
<path d="M2234 1495 c-3 -8 -3 -19 1 -25 11 -18 25 -11 25 15 0 27 -17 34 -26
10z"/>
<path d="M1117 1524 c-8 -8 1 -24 14 -24 5 0 9 7 9 15 0 15 -12 20 -23 9z"/>
<path d="M1110 1475 c0 -8 7 -15 15 -15 8 0 15 7 15 15 0 8 -7 15 -15 15 -8 0
-15 -7 -15 -15z"/>
<path d="M1605 1490 c-7 -12 2 -30 16 -30 5 0 9 9 9 20 0 21 -15 27 -25 10z"/>
<path d="M1886 1501 c-4 -7 -5 -15 -2 -18 9 -9 19 4 14 18 -4 11 -6 11 -12 0z"/>
<path d="M1950 1510 c0 -11 7 -20 15 -20 8 0 15 9 15 20 0 11 -7 20 -15 20 -8
0 -15 -9 -15 -20z"/>
<path d="M2025 1490 c-7 -12 2 -30 16 -30 5 0 9 9 9 20 0 21 -15 27 -25 10z"/>
<path d="M2726 1501 c-4 -7 -5 -15 -2 -18 9 -9 19 4 14 18 -4 11 -6 11 -12 0z"/>
<path d="M2797 1524 c-8 -8 1 -24 14 -24 5 0 9 7 9 15 0 15 -12 20 -23 9z"/>
<path d="M2790 1475 c0 -8 7 -15 15 -15 8 0 15 7 15 15 0 8 -7 15 -15 15 -8 0
-15 -7 -15 -15z"/>
<path d="M2864 1516 c-8 -21 -1 -49 14 -54 8 -2 12 8 12 32 0 36 -16 49 -26
22z"/>
<path d="M975 1500 c-3 -5 1 -10 9 -10 9 0 16 5 16 10 0 6 -4 10 -9 10 -6 0
-13 -4 -16 -10z"/>
<path d="M1954 1345 c-3 -8 -3 -19 1 -25 11 -18 25 -11 25 15 0 27 -17 34 -26
10z"/>
<path d="M977 1374 c-8 -8 1 -24 14 -24 5 0 9 7 9 15 0 15 -12 20 -23 9z"/>
<path d="M970 1325 c0 -8 7 -15 15 -15 8 0 15 7 15 15 0 8 -7 15 -15 15 -8 0
-15 -7 -15 -15z"/>
<path d="M1110 1360 c0 -11 7 -20 15 -20 8 0 15 9 15 20 0 11 -7 20 -15 20 -8
0 -15 -9 -15 -20z"/>
<path d="M1186 1351 c-4 -7 -5 -15 -2 -18 9 -9 19 4 14 18 -4 11 -6 11 -12 0z"/>
<path d="M1676 1351 c-4 -7 -5 -15 -2 -18 9 -9 19 4 14 18 -4 11 -6 11 -12 0z"/>
<path d="M1740 1360 c0 -11 7 -20 15 -20 8 0 15 9 15 20 0 11 -7 20 -15 20 -8
0 -15 -9 -15 -20z"/>
<path d="M2020 1360 c0 -11 7 -20 15 -20 8 0 15 9 15 20 0 11 -7 20 -15 20 -8
0 -15 -9 -15 -20z"/>
<path d="M2160 1360 c0 -11 7 -20 15 -20 8 0 15 9 15 20 0 11 -7 20 -15 20 -8
0 -15 -9 -15 -20z"/>
<path d="M2584 1366 c-8 -21 -1 -49 14 -54 8 -2 12 8 12 32 0 36 -16 49 -26
22z"/>
<path d="M1045 1350 c-3 -5 1 -10 9 -10 9 0 16 5 16 10 0 6 -4 10 -9 10 -6 0
-13 -4 -16 -10z"/>
<path d="M1465 1350 c-3 -5 1 -10 9 -10 9 0 16 5 16 10 0 6 -4 10 -9 10 -6 0
-13 -4 -16 -10z"/>
<path d="M2300 1320 c0 -5 7 -10 15 -10 8 0 15 5 15 10 0 6 -7 10 -15 10 -8 0
-15 -4 -15 -10z"/>
<path d="M2375 1350 c-3 -5 1 -10 9 -10 9 0 16 5 16 10 0 6 -4 10 -9 10 -6 0
-13 -4 -16 -10z"/>
<path d="M2790 1320 c0 -5 7 -10 15 -10 8 0 15 5 15 10 0 6 -7 10 -15 10 -8 0
-15 -4 -15 -10z"/>
<path d="M2865 1350 c-3 -5 1 -10 9 -10 9 0 16 5 16 10 0 6 -4 10 -9 10 -6 0
-13 -4 -16 -10z"/>
<path d="M1674 1195 c-3 -8 -3 -19 1 -25 11 -18 25 -11 25 15 0 27 -17 34 -26
10z"/>
<path d="M1884 1195 c-3 -8 -3 -19 1 -25 11 -18 25 -11 25 15 0 27 -17 34 -26
10z"/>
<path d="M2440 1186 c0 -17 5 -26 16 -26 10 0 14 7 12 22 -5 32 -28 35 -28 4z"/>
<path d="M1110 1210 c0 -11 7 -20 15 -20 8 0 15 9 15 20 0 11 -7 20 -15 20 -8
0 -15 -9 -15 -20z"/>
<path d="M1256 1201 c-4 -7 -5 -15 -2 -18 9 -9 19 4 14 18 -4 11 -6 11 -12 0z"/>
<path d="M1326 1201 c-4 -7 -5 -15 -2 -18 9 -9 19 4 14 18 -4 11 -6 11 -12 0z"/>
<path d="M1390 1210 c0 -11 7 -20 15 -20 8 0 15 9 15 20 0 11 -7 20 -15 20 -8
0 -15 -9 -15 -20z"/>
<path d="M1535 1190 c-7 -12 2 -30 16 -30 5 0 9 9 9 20 0 21 -15 27 -25 10z"/>
<path d="M1816 1201 c-4 -7 -5 -15 -2 -18 9 -9 19 4 14 18 -4 11 -6 11 -12 0z"/>
<path d="M1956 1201 c-4 -7 -5 -15 -2 -18 9 -9 19 4 14 18 -4 11 -6 11 -12 0z"/>
<path d="M2025 1190 c-7 -12 2 -30 16 -30 5 0 9 9 9 20 0 21 -15 27 -25 10z"/>
<path d="M2096 1201 c-4 -7 -5 -15 -2 -18 9 -9 19 4 14 18 -4 11 -6 11 -12 0z"/>
<path d="M2304 1216 c-8 -21 -1 -49 14 -54 8 -2 12 8 12 32 0 36 -16 49 -26
22z"/>
<path d="M2515 1190 c-7 -12 2 -30 16 -30 5 0 9 9 9 20 0 21 -15 27 -25 10z"/>
<path d="M2585 1190 c-7 -12 2 -30 16 -30 5 0 9 9 9 20 0 21 -15 27 -25 10z"/>
<path d="M2727 1224 c-8 -8 1 -24 14 -24 5 0 9 7 9 15 0 15 -12 20 -23 9z"/>
<path d="M2720 1175 c0 -8 7 -15 15 -15 8 0 15 7 15 15 0 8 -7 15 -15 15 -8 0
-15 -7 -15 -15z"/>
<path d="M2794 1216 c-8 -21 -1 -49 14 -54 8 -2 12 8 12 32 0 36 -16 49 -26
22z"/>
<path d="M2864 1216 c-8 -21 -1 -49 14 -54 8 -2 12 8 12 32 0 36 -16 49 -26
22z"/>
<path d="M2930 1210 c0 -11 7 -20 15 -20 8 0 15 9 15 20 0 11 -7 20 -15 20 -8
0 -15 -9 -15 -20z"/>
<path d="M1180 1170 c0 -5 7 -10 15 -10 8 0 15 5 15 10 0 6 -7 10 -15 10 -8 0
-15 -4 -15 -10z"/>
<path d="M1605 1200 c-3 -5 1 -10 9 -10 9 0 16 5 16 10 0 6 -4 10 -9 10 -6 0
-13 -4 -16 -10z"/>
<path d="M2165 1200 c-3 -5 1 -10 9 -10 9 0 16 5 16 10 0 6 -4 10 -9 10 -6 0
-13 -4 -16 -10z"/>
<path d="M2235 1200 c-3 -5 1 -10 9 -10 9 0 16 5 16 10 0 6 -4 10 -9 10 -6 0
-13 -4 -16 -10z"/>
<path d="M2375 1200 c-3 -5 1 -10 9 -10 9 0 16 5 16 10 0 6 -4 10 -9 10 -6 0
-13 -4 -16 -10z"/>
<path d="M2650 1170 c0 -5 7 -10 15 -10 8 0 15 5 15 10 0 6 -7 10 -15 10 -8 0
-15 -4 -15 -10z"/>
<path d="M1184 1045 c-3 -8 -3 -19 1 -25 11 -18 25 -11 25 15 0 27 -17 34 -26
10z"/>
<path d="M1884 1045 c-3 -8 -3 -19 1 -25 11 -18 25 -11 25 15 0 27 -17 34 -26
10z"/>
<path d="M2164 1045 c-3 -8 -3 -19 1 -25 11 -18 25 -11 25 15 0 27 -17 34 -26
10z"/>
<path d="M1396 1051 c-4 -7 -5 -15 -2 -18 9 -9 19 4 14 18 -4 11 -6 11 -12 0z"/>
<path d="M1466 1051 c-4 -7 -5 -15 -2 -18 9 -9 19 4 14 18 -4 11 -6 11 -12 0z"/>
<path d="M1675 1040 c-7 -12 2 -30 16 -30 5 0 9 9 9 20 0 21 -15 27 -25 10z"/>
<path d="M1810 1060 c0 -11 7 -20 15 -20 8 0 15 9 15 20 0 11 -7 20 -15 20 -8
0 -15 -9 -15 -20z"/>
<path d="M2024 1066 c-8 -21 -1 -49 14 -54 8 -2 12 8 12 32 0 36 -16 49 -26
22z"/>
<path d="M2375 1040 c-7 -12 2 -30 16 -30 5 0 9 9 9 20 0 21 -15 27 -25 10z"/>
<path d="M2440 1060 c0 -11 7 -20 15 -20 8 0 15 9 15 20 0 11 -7 20 -15 20 -8
0 -15 -9 -15 -20z"/>
<path d="M2654 1066 c-8 -21 -1 -49 14 -54 8 -2 12 8 12 32 0 36 -16 49 -26
22z"/>
<path d="M2724 1066 c-8 -21 -1 -49 14 -54 8 -2 12 8 12 32 0 36 -16 49 -26
22z"/>
<path d="M2795 1040 c-7 -12 2 -30 16 -30 5 0 9 9 9 20 0 21 -15 27 -25 10z"/>
<path d="M2937 1074 c-8 -8 1 -24 14 -24 5 0 9 7 9 15 0 15 -12 20 -23 9z"/>
<path d="M2930 1025 c0 -8 7 -15 15 -15 8 0 15 7 15 15 0 8 -7 15 -15 15 -8 0
-15 -7 -15 -15z"/>
<path d="M1535 1050 c-3 -5 1 -10 9 -10 9 0 16 5 16 10 0 6 -4 10 -9 10 -6 0
-13 -4 -16 -10z"/>
<path d="M2865 1050 c-3 -5 1 -10 9 -10 9 0 16 5 16 10 0 6 -4 10 -9 10 -6 0
-13 -4 -16 -10z"/>
<path d="M1250 886 c0 -17 5 -26 16 -26 10 0 14 7 12 22 -5 32 -28 35 -28 4z"/>
<path d="M1950 886 c0 -17 5 -26 16 -26 10 0 14 7 12 22 -5 32 -28 35 -28 4z"/>
<path d="M2580 886 c0 -17 5 -26 16 -26 10 0 14 7 12 22 -5 32 -28 35 -28 4z"/>
<path d="M977 924 c-8 -8 1 -24 14 -24 5 0 9 7 9 15 0 15 -12 20 -23 9z"/>
<path d="M970 875 c0 -8 7 -15 15 -15 8 0 15 7 15 15 0 8 -7 15 -15 15 -8 0
-15 -7 -15 -15z"/>
<path d="M1395 890 c-7 -12 2 -30 16 -30 5 0 9 9 9 20 0 21 -15 27 -25 10z"/>
<path d="M1534 916 c-8 -21 -1 -49 14 -54 8 -2 12 8 12 32 0 36 -16 49 -26 22z"/>
<path d="M1600 910 c0 -11 7 -20 15 -20 8 0 15 9 15 20 0 11 -7 20 -15 20 -8
0 -15 -9 -15 -20z"/>
<path d="M1747 924 c-8 -8 1 -24 14 -24 5 0 9 7 9 15 0 15 -12 20 -23 9z"/>
<path d="M1740 875 c0 -8 7 -15 15 -15 8 0 15 7 15 15 0 8 -7 15 -15 15 -8 0
-15 -7 -15 -15z"/>
<path d="M1814 916 c-8 -21 -1 -49 14 -54 8 -2 12 8 12 32 0 36 -16 49 -26 22z"/>
<path d="M2026 901 c-4 -7 -5 -15 -2 -18 9 -9 19 4 14 18 -4 11 -6 11 -12 0z"/>
<path d="M2096 901 c-4 -7 -5 -15 -2 -18 9 -9 19 4 14 18 -4 11 -6 11 -12 0z"/>
<path d="M2166 901 c-4 -7 -5 -15 -2 -18 9 -9 19 4 14 18 -4 11 -6 11 -12 0z"/>
<path d="M2306 901 c-4 -7 -5 -15 -2 -18 9 -9 19 4 14 18 -4 11 -6 11 -12 0z"/>
<path d="M2376 901 c-4 -7 -5 -15 -2 -18 9 -9 19 4 14 18 -4 11 -6 11 -12 0z"/>
<path d="M2445 890 c-7 -12 2 -30 16 -30 5 0 9 9 9 20 0 21 -15 27 -25 10z"/>
<path d="M905 900 c-3 -5 1 -10 9 -10 9 0 16 5 16 10 0 6 -4 10 -9 10 -6 0
-13 -4 -16 -10z"/>
<path d="M1110 870 c0 -5 7 -10 15 -10 8 0 15 5 15 10 0 6 -7 10 -15 10 -8 0
-15 -4 -15 -10z"/>
<path d="M1185 900 c-3 -5 1 -10 9 -10 9 0 16 5 16 10 0 6 -4 10 -9 10 -6 0
-13 -4 -16 -10z"/>
<path d="M1460 870 c0 -5 7 -10 15 -10 8 0 15 5 15 10 0 6 -7 10 -15 10 -8 0
-15 -4 -15 -10z"/>
<path d="M1675 900 c-3 -5 1 -10 9 -10 9 0 16 5 16 10 0 6 -4 10 -9 10 -6 0
-13 -4 -16 -10z"/>
<path d="M2725 900 c-3 -5 1 -10 9 -10 9 0 16 5 16 10 0 6 -4 10 -9 10 -6 0
-13 -4 -16 -10z"/>
<path d="M2790 870 c0 -5 7 -10 15 -10 8 0 15 5 15 10 0 6 -7 10 -15 10 -8 0
-15 -4 -15 -10z"/>
<path d="M2860 870 c0 -5 7 -10 15 -10 8 0 15 5 15 10 0 6 -7 10 -15 10 -8 0
-15 -4 -15 -10z"/>
<path d="M3000 870 c0 -5 7 -10 15 -10 8 0 15 5 15 10 0 6 -7 10 -15 10 -8 0
-15 -4 -15 -10z"/>
<path d="M834 745 c-3 -8 -3 -19 1 -25 11 -18 25 -11 25 15 0 27 -17 34 -26
10z"/>
<path d="M2794 745 c-3 -8 -3 -19 1 -25 11 -18 25 -11 25 15 0 27 -17 34 -26
10z"/>
<path d="M906 751 c-4 -7 -5 -15 -2 -18 9 -9 19 4 14 18 -4 11 -6 11 -12 0z"/>
<path d="M1044 766 c-8 -21 -1 -49 14 -54 8 -2 12 8 12 32 0 36 -16 49 -26 22z"/>
<path d="M1116 751 c-4 -7 -5 -15 -2 -18 9 -9 19 4 14 18 -4 11 -6 11 -12 0z"/>
<path d="M1250 760 c0 -11 7 -20 15 -20 8 0 15 9 15 20 0 11 -7 20 -15 20 -8
0 -15 -9 -15 -20z"/>
<path d="M1395 740 c-7 -12 2 -30 16 -30 5 0 9 9 9 20 0 21 -15 27 -25 10z"/>
<path d="M1530 760 c0 -11 7 -20 15 -20 8 0 15 9 15 20 0 11 -7 20 -15 20 -8
0 -15 -9 -15 -20z"/>
<path d="M1814 766 c-8 -21 -1 -49 14 -54 8 -2 12 8 12 32 0 36 -16 49 -26 22z"/>
<path d="M1956 751 c-4 -7 -5 -15 -2 -18 9 -9 19 4 14 18 -4 11 -6 11 -12 0z"/>
<path d="M2160 760 c0 -11 7 -20 15 -20 8 0 15 9 15 20 0 11 -7 20 -15 20 -8
0 -15 -9 -15 -20z"/>
<path d="M2517 774 c-8 -8 1 -24 14 -24 5 0 9 7 9 15 0 15 -12 20 -23 9z"/>
<path d="M2510 725 c0 -8 7 -15 15 -15 8 0 15 7 15 15 0 8 -7 15 -15 15 -8 0
-15 -7 -15 -15z"/>
<path d="M1320 720 c0 -5 7 -10 15 -10 8 0 15 5 15 10 0 6 -7 10 -15 10 -8 0
-15 -4 -15 -10z"/>
<path d="M2580 720 c0 -5 7 -10 15 -10 8 0 15 5 15 10 0 6 -7 10 -15 10 -8 0
-15 -4 -15 -10z"/>
</g>
</svg>
